<svg width="24" height="24" viewBox="0 0 24 24" fill="none" xmlns="http://www.w3.org/2000/svg">
<path fill-rule="evenodd" clip-rule="evenodd" d="M16.4697 2.30823L17.998 0.204834L19.2115 1.08653L17.6832 3.18993L16.4697 2.30823ZM4.77585 1.09485L5.98935 0.213154L7.51763 2.31655L6.30413 3.19825L4.77585 1.09485ZM1.07471 12.4886L3.54757 11.6852L4.01107 13.1119L1.53821 13.9153L1.07471 12.4886ZM20.4273 11.7045L19.964 13.1312L22.4368 13.9343L22.9002 12.5076L20.4273 11.7045ZM16.9998 11.4L19.9998 8.85002C20.5498 8.40002 20.7498 7.65002 20.5498 6.95002C20.3498 6.25002 19.7498 5.80002 18.9998 5.75002L15.0998 5.50002L13.5998 1.85002C13.3498 1.20002 12.6998 0.750024 11.9998 0.750024C11.2998 0.750024 10.6498 1.20002 10.3998 1.85002L8.89983 5.50002L4.99983 5.75002C4.29983 5.80002 3.69983 6.25002 3.44983 6.95002C3.19983 7.65002 3.44983 8.35002 3.99983 8.85002L6.99983 11.4L6.04983 15.2C5.89983 15.9 6.14983 16.6 6.69983 17.05C7.29983 17.45 8.04983 17.5 8.64983 17.1L11.2498 15.5V22.7C11.2498 23.1 11.5998 23.45 11.9998 23.45C12.3998 23.45 12.7498 23.1 12.7498 22.7V15.5L15.3498 17.1C15.9498 17.45 16.6998 17.45 17.2998 17.05C17.8998 16.65 18.1498 15.9 17.9498 15.2L16.9998 11.4ZM16.3998 15.8C16.3498 15.85 16.2498 15.9 16.0998 15.8L11.9998 13.25L7.84983 15.8C7.74983 15.9 7.59983 15.85 7.54983 15.8C7.49983 15.75 7.39983 15.65 7.44983 15.55L8.59983 10.85L4.89983 7.70002C4.79983 7.60002 4.79983 7.50002 4.79983 7.45002C4.79983 7.40002 4.84983 7.30002 4.99983 7.30002L9.84983 6.95002L11.6998 2.45002C11.7498 2.30002 11.8498 2.30002 11.9498 2.30002C12.0498 2.30002 12.1498 2.30002 12.1998 2.45002L14.0498 6.95002L18.8998 7.30002C19.0498 7.30002 19.0998 7.40002 19.0998 7.45002C19.0998 7.45879 19.1014 7.4691 19.1031 7.48068C19.1112 7.5351 19.1235 7.61756 18.9998 7.70002L15.2998 10.85L16.4498 15.55C16.5361 15.6794 16.4735 15.7344 16.4226 15.7791C16.4145 15.7863 16.4067 15.7932 16.3998 15.8Z" fill="#E20074"/>
</svg>
