<svg width="25" height="25" viewBox="0 0 25 25" fill="none" xmlns="http://www.w3.org/2000/svg">
<path d="M11.4099 9.72223C10.4485 9.72223 9.50866 9.43713 8.70925 8.90298C7.90985 8.36883 7.28679 7.60963 6.91886 6.72138C6.55093 5.83313 6.45467 4.85572 6.64224 3.91276C6.8298 2.96979 7.29278 2.10363 7.97262 1.42379C8.65246 0.74395 9.51862 0.280974 10.4616 0.0934071C11.4045 -0.09416 12.382 0.00210624 13.2702 0.370032C14.1585 0.737958 14.9177 1.36102 15.4518 2.16042C15.986 2.95983 16.2711 3.89968 16.2711 4.86111C16.2711 6.15036 15.7589 7.3868 14.8473 8.29844C13.9356 9.21007 12.6992 9.72223 11.4099 9.72223ZM11.4099 1.44445C10.7232 1.44445 10.0519 1.64809 9.48088 2.02962C8.90987 2.41115 8.46483 2.95344 8.20203 3.58791C7.93922 4.22237 7.87046 4.92052 8.00444 5.59407C8.13841 6.26761 8.46911 6.8863 8.95471 7.3719C9.44031 7.8575 10.059 8.1882 10.7325 8.32217C11.4061 8.45615 12.1042 8.38739 12.7387 8.12458C13.3732 7.86178 13.9155 7.41674 14.297 6.84573C14.6785 6.27473 14.8822 5.60341 14.8822 4.91667C14.8822 4.46069 14.7924 4.00918 14.6179 3.58791C14.4434 3.16664 14.1876 2.78386 13.8652 2.46144C13.5427 2.13901 13.16 1.88325 12.7387 1.70875C12.3174 1.53426 11.8659 1.44445 11.4099 1.44445Z" fill="#E20074"/>
<path d="M15.2781 10.5626C11.5201 9.71692 7.58856 10.1242 4.08368 11.7223C3.60166 11.9525 3.19498 12.315 2.91097 12.7674C2.62697 13.2198 2.47734 13.7437 2.47952 14.2778V18.4098C2.47952 18.501 2.49748 18.5913 2.53238 18.6755C2.56728 18.7598 2.61843 18.8363 2.68291 18.9008C2.7474 18.9653 2.82395 19.0165 2.90821 19.0514C2.99246 19.0863 3.08276 19.1042 3.17396 19.1042C3.26516 19.1042 3.35546 19.0863 3.43971 19.0514C3.52397 19.0165 3.60052 18.9653 3.66501 18.9008C3.72949 18.8363 3.78064 18.7598 3.81554 18.6755C3.85044 18.5913 3.8684 18.501 3.8684 18.4098V14.2778C3.86236 14.0075 3.93536 13.7413 4.07846 13.5118C4.22156 13.2824 4.42852 13.0997 4.67396 12.9862C6.78526 12.0113 9.0846 11.5111 11.4101 11.5209C12.7131 11.5192 14.0116 11.6731 15.2781 11.9792V10.5626Z" fill="#E20074"/>
<path d="M15.3755 17.1666H19.6394V18.1388H15.3755V17.1666Z" fill="#E20074"/>
<path d="M23.0349 13.0417H19.4447V14.4306H22.3405V20.2431H12.5002V14.4306H16.8752V14.7222C16.8752 14.9064 16.9484 15.0831 17.0786 15.2133C17.2088 15.3435 17.3855 15.4167 17.5697 15.4167C17.7538 15.4167 17.9305 15.3435 18.0607 15.2133C18.1909 15.0831 18.2641 14.9064 18.2641 14.7222V12.0209C18.2641 11.8367 18.1909 11.66 18.0607 11.5298C17.9305 11.3996 17.7538 11.3264 17.5697 11.3264C17.3855 11.3264 17.2088 11.3996 17.0786 11.5298C16.9484 11.66 16.8752 11.8367 16.8752 12.0209V13.0417H11.8058C11.6216 13.0417 11.445 13.1149 11.3147 13.2451C11.1845 13.3753 11.1113 13.552 11.1113 13.7361V20.9375C11.1113 21.1217 11.1845 21.2983 11.3147 21.4286C11.445 21.5588 11.6216 21.632 11.8058 21.632H23.0349C23.2191 21.632 23.3958 21.5588 23.526 21.4286C23.6562 21.2983 23.7294 21.1217 23.7294 20.9375V13.7361C23.7294 13.552 23.6562 13.3753 23.526 13.2451C23.3958 13.1149 23.2191 13.0417 23.0349 13.0417Z" fill="#E20074"/>
</svg>
