<svg width="20" height="20" viewBox="0 0 20 20" fill="none" xmlns="http://www.w3.org/2000/svg">
<path fill-rule="evenodd" clip-rule="evenodd" d="M10.0002 0.833374C4.9585 0.833374 0.833496 4.91671 0.833496 10C0.833496 15.0834 4.91683 19.1667 10.0002 19.1667C15.0835 19.1667 19.1668 15.0834 19.1668 10C19.1668 4.91671 15.0835 0.833374 10.0002 0.833374ZM10.0002 17.9167C5.62516 17.9167 2.0835 14.375 2.0835 10C2.0835 5.62504 5.62516 2.08337 10.0002 2.08337C14.3752 2.08337 17.9168 5.62504 17.9168 10C17.9168 14.375 14.3752 17.9167 10.0002 17.9167ZM10.6252 9.62504L14.2918 11.625C14.6252 11.7917 14.7085 12.2084 14.5418 12.5C14.4168 12.7084 14.2085 12.8334 14.0002 12.8334C13.9168 12.8334 13.7918 12.7917 13.7085 12.75L9.37516 10.375V3.95837C9.37516 3.62504 9.66683 3.33337 10.0002 3.33337C10.3335 3.33337 10.6252 3.58337 10.6252 3.95837V9.62504Z" fill="#E20074"/>
<mask id="mask0" mask-type="alpha" maskUnits="userSpaceOnUse" x="0" y="0" width="20" height="20">
<path fill-rule="evenodd" clip-rule="evenodd" d="M10.0002 0.833374C4.9585 0.833374 0.833496 4.91671 0.833496 10C0.833496 15.0834 4.91683 19.1667 10.0002 19.1667C15.0835 19.1667 19.1668 15.0834 19.1668 10C19.1668 4.91671 15.0835 0.833374 10.0002 0.833374ZM10.0002 17.9167C5.62516 17.9167 2.0835 14.375 2.0835 10C2.0835 5.62504 5.62516 2.08337 10.0002 2.08337C14.3752 2.08337 17.9168 5.62504 17.9168 10C17.9168 14.375 14.3752 17.9167 10.0002 17.9167ZM10.6252 9.62504L14.2918 11.625C14.6252 11.7917 14.7085 12.2084 14.5418 12.5C14.4168 12.7084 14.2085 12.8334 14.0002 12.8334C13.9168 12.8334 13.7918 12.7917 13.7085 12.75L9.37516 10.375V3.95837C9.37516 3.62504 9.66683 3.33337 10.0002 3.33337C10.3335 3.33337 10.6252 3.58337 10.6252 3.95837V9.62504Z" fill="white"/>
</mask>
<g mask="url(#mask0)">
</g>
</svg>
