<svg width="24" height="24" viewBox="0 0 24 24" fill="none" xmlns="http://www.w3.org/2000/svg">
<path fill-rule="evenodd" clip-rule="evenodd" d="M22.6082 13.008L19.5842 13.92L16.4642 9.84004C15.7922 8.97604 14.5922 8.73604 13.6322 9.31204L10.1282 11.424C9.84021 11.616 9.45621 11.568 9.21621 11.28C8.92821 10.992 8.97621 10.512 9.26421 10.224L12.8642 7.10404C13.3922 6.67204 14.0162 6.43204 14.6882 6.43204C15.3122 6.43204 15.9362 6.62404 16.4162 7.00804L17.7602 8.06404C18.5282 8.64004 19.4882 8.88004 20.4002 8.64004L22.8962 8.06404C23.2802 7.96804 23.5202 7.58404 23.4242 7.20004C23.3282 6.81604 22.9442 6.57604 22.5602 6.67204L20.1602 7.34404C19.6802 7.44004 19.1522 7.34404 18.7202 7.00804L17.3762 5.95204C16.6562 5.37604 15.6962 5.04004 14.7842 5.04004C13.8722 5.04004 13.0082 5.32804 12.2402 5.90404C11.0402 4.89604 9.21621 4.80004 7.92021 5.66404L6.33621 6.72004C5.56821 7.20004 4.65621 7.39204 3.74421 7.20004L1.34421 6.72004C0.960207 6.67204 0.576207 6.91204 0.480207 7.29604C0.432207 7.68004 0.672207 8.06404 1.05621 8.16004L3.45621 8.64004C3.79221 8.68804 4.08021 8.73604 4.41621 8.73604C5.37621 8.73604 6.33621 8.44804 7.15221 7.92004L8.68821 6.86404C9.40821 6.38404 10.3682 6.38404 11.0402 6.86404L8.30421 9.16804C7.39221 9.98404 7.29621 11.376 8.11221 12.24C8.78421 13.008 9.93621 13.2 10.8482 12.624L14.4002 10.56C14.7362 10.368 15.1202 10.464 15.3602 10.752C15.3602 10.752 17.8562 14.016 18.4322 14.784C18.9602 15.504 18.7202 16.32 18.2882 16.56C18.0002 16.752 17.2802 16.704 17.2802 16.704C17.2802 16.704 17.1842 17.568 16.7522 17.808C16.3682 18.048 15.5042 17.808 15.5042 17.808C15.5042 17.808 15.2642 18.48 14.9762 18.672C14.4962 19.008 13.6322 18.624 13.6322 18.624C13.6322 18.624 13.2962 19.2 13.1042 19.344C12.8642 19.488 12.5282 19.536 12.1922 19.392C12.7202 18.288 12.5762 17.04 11.7602 16.368C11.5202 16.176 11.2322 16.032 10.9442 15.984C10.8002 15.744 10.6562 15.6 10.4642 15.408C10.2242 15.216 9.98421 15.12 9.69621 15.024C9.55221 14.784 9.40821 14.544 9.16821 14.352C8.97621 14.208 8.78421 14.112 8.59221 14.016C8.44821 13.728 8.25621 13.44 8.01621 13.248C7.00821 12.432 5.52021 12.768 4.46421 13.92L1.44021 13.008C1.05621 12.864 0.672207 13.104 0.528207 13.488C0.384207 13.872 0.624207 14.256 1.00821 14.4L3.79221 15.312C3.45621 16.32 3.69621 17.328 4.41621 17.904C4.60821 18.048 4.80021 18.144 4.99221 18.24C5.13621 18.528 5.32821 18.816 5.56821 19.008C5.80821 19.2 6.04821 19.296 6.33621 19.392C6.48021 19.632 6.62421 19.872 6.86421 20.064C7.10421 20.256 7.39221 20.4 7.68021 20.448C7.82421 20.688 7.96821 20.832 8.16021 21.024C8.54421 21.312 8.97621 21.456 9.45621 21.456C10.0802 21.456 10.8002 21.168 11.3762 20.688C11.8082 20.928 12.2402 21.024 12.6722 21.024C13.1042 21.024 13.5842 20.88 13.9682 20.64C14.1122 20.544 14.2082 20.448 14.3522 20.352C14.8802 20.4 15.4082 20.304 15.8882 19.968C16.0802 19.824 16.2722 19.68 16.4162 19.488C16.8482 19.488 17.2802 19.344 17.6642 19.104C18.0482 18.864 18.2882 18.528 18.4802 18.144C18.7202 18.096 18.9602 18 19.1522 17.856C19.7282 17.472 20.1122 16.848 20.2082 16.08C20.2562 15.84 20.2082 15.6 20.2082 15.36L23.1362 14.496C23.5202 14.4 23.7122 13.968 23.6162 13.584C23.3762 13.104 22.9922 12.912 22.6082 13.008ZM10.6562 19.248C10.1282 19.92 9.36021 20.064 9.02421 19.824C8.78421 19.632 8.68821 18.96 8.68821 18.96C8.68821 18.96 8.01621 19.104 7.72821 18.864C7.44021 18.624 7.39221 17.952 7.39221 17.952C7.39221 17.952 6.72021 18.096 6.43221 17.856C6.14421 17.616 6.14421 16.944 6.14421 16.944C6.14421 16.944 5.56821 16.992 5.28021 16.8C4.94421 16.512 4.94421 15.744 5.52021 15.072C6.04821 14.4 6.81621 14.208 7.15221 14.496C7.48821 14.784 7.44021 15.408 7.44021 15.408C7.44021 15.408 8.06421 15.36 8.30421 15.6C8.59221 15.888 8.59221 16.512 8.59221 16.512C8.59221 16.512 9.21621 16.368 9.55221 16.608C9.88821 16.848 9.88821 17.472 9.88821 17.472C9.88821 17.472 10.5122 17.328 10.8482 17.568C11.1842 17.808 11.1842 18.576 10.6562 19.248Z" fill="#E20074"/>
<mask id="mask0" mask-type="alpha" maskUnits="userSpaceOnUse" x="0" y="5" width="24" height="17">
<path fill-rule="evenodd" clip-rule="evenodd" d="M22.6082 13.008L19.5842 13.92L16.4642 9.84004C15.7922 8.97604 14.5922 8.73604 13.6322 9.31204L10.1282 11.424C9.84021 11.616 9.45621 11.568 9.21621 11.28C8.92821 10.992 8.97621 10.512 9.26421 10.224L12.8642 7.10404C13.3922 6.67204 14.0162 6.43204 14.6882 6.43204C15.3122 6.43204 15.9362 6.62404 16.4162 7.00804L17.7602 8.06404C18.5282 8.64004 19.4882 8.88004 20.4002 8.64004L22.8962 8.06404C23.2802 7.96804 23.5202 7.58404 23.4242 7.20004C23.3282 6.81604 22.9442 6.57604 22.5602 6.67204L20.1602 7.34404C19.6802 7.44004 19.1522 7.34404 18.7202 7.00804L17.3762 5.95204C16.6562 5.37604 15.6962 5.04004 14.7842 5.04004C13.8722 5.04004 13.0082 5.32804 12.2402 5.90404C11.0402 4.89604 9.21621 4.80004 7.92021 5.66404L6.33621 6.72004C5.56821 7.20004 4.65621 7.39204 3.74421 7.20004L1.34421 6.72004C0.960207 6.67204 0.576207 6.91204 0.480207 7.29604C0.432207 7.68004 0.672207 8.06404 1.05621 8.16004L3.45621 8.64004C3.79221 8.68804 4.08021 8.73604 4.41621 8.73604C5.37621 8.73604 6.33621 8.44804 7.15221 7.92004L8.68821 6.86404C9.40821 6.38404 10.3682 6.38404 11.0402 6.86404L8.30421 9.16804C7.39221 9.98404 7.29621 11.376 8.11221 12.24C8.78421 13.008 9.93621 13.2 10.8482 12.624L14.4002 10.56C14.7362 10.368 15.1202 10.464 15.3602 10.752C15.3602 10.752 17.8562 14.016 18.4322 14.784C18.9602 15.504 18.7202 16.32 18.2882 16.56C18.0002 16.752 17.2802 16.704 17.2802 16.704C17.2802 16.704 17.1842 17.568 16.7522 17.808C16.3682 18.048 15.5042 17.808 15.5042 17.808C15.5042 17.808 15.2642 18.48 14.9762 18.672C14.4962 19.008 13.6322 18.624 13.6322 18.624C13.6322 18.624 13.2962 19.2 13.1042 19.344C12.8642 19.488 12.5282 19.536 12.1922 19.392C12.7202 18.288 12.5762 17.04 11.7602 16.368C11.5202 16.176 11.2322 16.032 10.9442 15.984C10.8002 15.744 10.6562 15.6 10.4642 15.408C10.2242 15.216 9.98421 15.12 9.69621 15.024C9.55221 14.784 9.40821 14.544 9.16821 14.352C8.97621 14.208 8.78421 14.112 8.59221 14.016C8.44821 13.728 8.25621 13.44 8.01621 13.248C7.00821 12.432 5.52021 12.768 4.46421 13.92L1.44021 13.008C1.05621 12.864 0.672207 13.104 0.528207 13.488C0.384207 13.872 0.624207 14.256 1.00821 14.4L3.79221 15.312C3.45621 16.32 3.69621 17.328 4.41621 17.904C4.60821 18.048 4.80021 18.144 4.99221 18.24C5.13621 18.528 5.32821 18.816 5.56821 19.008C5.80821 19.2 6.04821 19.296 6.33621 19.392C6.48021 19.632 6.62421 19.872 6.86421 20.064C7.10421 20.256 7.39221 20.4 7.68021 20.448C7.82421 20.688 7.96821 20.832 8.16021 21.024C8.54421 21.312 8.97621 21.456 9.45621 21.456C10.0802 21.456 10.8002 21.168 11.3762 20.688C11.8082 20.928 12.2402 21.024 12.6722 21.024C13.1042 21.024 13.5842 20.88 13.9682 20.64C14.1122 20.544 14.2082 20.448 14.3522 20.352C14.8802 20.4 15.4082 20.304 15.8882 19.968C16.0802 19.824 16.2722 19.68 16.4162 19.488C16.8482 19.488 17.2802 19.344 17.6642 19.104C18.0482 18.864 18.2882 18.528 18.4802 18.144C18.7202 18.096 18.9602 18 19.1522 17.856C19.7282 17.472 20.1122 16.848 20.2082 16.08C20.2562 15.84 20.2082 15.6 20.2082 15.36L23.1362 14.496C23.5202 14.4 23.7122 13.968 23.6162 13.584C23.3762 13.104 22.9922 12.912 22.6082 13.008ZM10.6562 19.248C10.1282 19.92 9.36021 20.064 9.02421 19.824C8.78421 19.632 8.68821 18.96 8.68821 18.96C8.68821 18.96 8.01621 19.104 7.72821 18.864C7.44021 18.624 7.39221 17.952 7.39221 17.952C7.39221 17.952 6.72021 18.096 6.43221 17.856C6.14421 17.616 6.14421 16.944 6.14421 16.944C6.14421 16.944 5.56821 16.992 5.28021 16.8C4.94421 16.512 4.94421 15.744 5.52021 15.072C6.04821 14.4 6.81621 14.208 7.15221 14.496C7.48821 14.784 7.44021 15.408 7.44021 15.408C7.44021 15.408 8.06421 15.36 8.30421 15.6C8.59221 15.888 8.59221 16.512 8.59221 16.512C8.59221 16.512 9.21621 16.368 9.55221 16.608C9.88821 16.848 9.88821 17.472 9.88821 17.472C9.88821 17.472 10.5122 17.328 10.8482 17.568C11.1842 17.808 11.1842 18.576 10.6562 19.248Z" fill="white"/>
</mask>
<g mask="url(#mask0)">
</g>
</svg>
