<svg width="24" height="24" viewBox="0 0 24 24" fill="none" xmlns="http://www.w3.org/2000/svg">
<path fill-rule="evenodd" clip-rule="evenodd" d="M18 13.22C16.725 14.325 15.07 15 13.25 15C9.245 15 6 11.755 6 7.75C6 3.745 9.245 0.5 13.25 0.5C17.255 0.5 20.5 3.745 20.5 7.75C20.5 8.125 20.46 8.495 20.405 8.855L18.985 8.02C18.9867 7.99 18.9889 7.95999 18.9911 7.92999C18.9956 7.86999 19 7.81 19 7.75C19 4.58 16.42 2 13.25 2C10.08 2 7.5 4.58 7.5 7.75C7.5 10.92 10.08 13.5 13.25 13.5C15.22 13.5 16.965 12.5 18 10.985V13.22ZM12 21.33V16.4C12.41 16.46 12.825 16.5 13.255 16.505C13.2975 16.505 13.3388 16.5013 13.38 16.4975C13.4212 16.4937 13.4625 16.49 13.505 16.49V22.34C13.505 22.995 12.97 23.425 12.415 23.425C12.145 23.425 11.875 23.325 11.655 23.105L9.55 21H2.355C1.33 21 0.5 20.17 0.5 19.145V11.5H5.355C5.61 12.03 5.915 12.535 6.265 13H2V19.145C2 19.34 2.16 19.5 2.355 19.5H10.17L12 21.33ZM19.5 10.06V18.43C19.22 18.32 18.91 18.245 18.59 18.22C17.24 18.13 16.14 18.95 16.12 20.05C16.105 21.15 17.185 22.095 18.53 22.205C19.4 22.275 20.99 21.955 20.99 19.855V13.6L23.5 14.235V12.405L19.5 10.06ZM16.115 7.835L11.5 10.5V5.17L16.115 7.835Z" fill="#E20074"/>
</svg>
