<svg width="28" height="28" viewBox="0 0 28 28" fill="none" xmlns="http://www.w3.org/2000/svg">
<path d="M6.57112 22.75C6.14561 22.7507 5.72188 22.6948 5.31112 22.5838C4.07816 22.2321 3.03213 21.4113 2.39743 20.2973C1.76273 19.1833 1.58994 17.8649 1.91612 16.625L3.95487 8.89C4.11365 8.264 4.39591 7.67604 4.78508 7.16065C5.17426 6.64526 5.6625 6.21283 6.22112 5.88875C6.76505 5.57371 7.36608 5.36973 7.9894 5.28862C8.61272 5.20751 9.24594 5.2509 9.85237 5.41625C10.497 5.59527 11.0974 5.90626 11.6156 6.32951C12.1337 6.75277 12.5583 7.27905 12.8624 7.875H15.1374C15.4401 7.2781 15.8643 6.75104 16.3826 6.32762C16.9009 5.90421 17.502 5.59379 18.1474 5.41625C18.7538 5.2509 19.387 5.20751 20.0103 5.28862C20.6337 5.36973 21.2347 5.57371 21.7786 5.88875C22.3345 6.212 22.821 6.64206 23.2099 7.15415C23.5989 7.66624 23.8826 8.25025 24.0449 8.8725L26.0836 16.625C26.4147 17.8685 26.2433 19.1924 25.6064 20.3106C24.9695 21.4288 23.9183 22.2516 22.6799 22.6013C22.0734 22.7666 21.4402 22.81 20.8169 22.7289C20.1936 22.6478 19.5925 22.4438 19.0486 22.1288C18.4918 21.8067 18.0046 21.377 17.6156 20.8647C17.2265 20.3524 16.9432 19.7678 16.7824 19.145L16.6249 18.375H11.3749L11.1736 19.1275C11.0127 19.7503 10.7295 20.3349 10.3404 20.8472C9.95135 21.3595 9.4642 21.7892 8.90737 22.1113C8.19642 22.5213 7.39181 22.7413 6.57112 22.75ZM8.60112 7C8.07309 7.0018 7.55455 7.14048 7.09612 7.4025C6.37762 7.82406 5.85536 8.51307 5.64362 9.31875L3.60487 17.0538C3.39153 17.8507 3.49933 18.6994 3.9051 19.4177C4.31087 20.136 4.98221 20.6664 5.77487 20.895C6.15769 20.9994 6.55741 21.0269 6.95091 20.9758C7.34442 20.9248 7.72389 20.7962 8.06737 20.5975C8.42499 20.391 8.73771 20.1152 8.98715 19.7861C9.23659 19.457 9.41772 19.0814 9.51987 18.6813L10.0624 16.625H17.9374L18.4711 18.6813C18.5751 19.0806 18.7569 19.4554 19.0062 19.7843C19.2554 20.1131 19.5672 20.3895 19.9236 20.5975C20.2688 20.796 20.6497 20.9244 21.0446 20.9755C21.4395 21.0265 21.8406 20.9992 22.2249 20.895C23.0185 20.6685 23.6907 20.138 24.0953 19.4188C24.5 18.6995 24.6045 17.8496 24.3861 17.0538L22.3474 9.31875C22.2458 8.91958 22.0658 8.54459 21.818 8.21561C21.5701 7.88663 21.2593 7.61024 20.9036 7.4025C20.5584 7.20402 20.1775 7.07558 19.7826 7.02453C19.3877 6.97348 18.9867 7.00083 18.6024 7.105C18.1271 7.24048 17.691 7.48739 17.3304 7.82524C16.9697 8.16308 16.6948 8.58211 16.5286 9.0475L16.3186 9.625H11.6811L11.4711 9.0475C11.3034 8.58148 11.027 8.16217 10.6649 7.82434C10.3027 7.48651 9.86517 7.23991 9.38862 7.105C9.13183 7.03576 8.86708 7.00046 8.60112 7Z" fill="#E20074"/>
<path d="M8.75 14C8.40388 14 8.06554 13.8974 7.77775 13.7051C7.48997 13.5128 7.26566 13.2395 7.13321 12.9197C7.00076 12.5999 6.9661 12.2481 7.03363 11.9086C7.10115 11.5691 7.26782 11.2573 7.51256 11.0126C7.75731 10.7678 8.06913 10.6012 8.40859 10.5336C8.74806 10.4661 9.09993 10.5008 9.4197 10.6332C9.73947 10.7657 10.0128 10.99 10.2051 11.2778C10.3974 11.5655 10.5 11.9039 10.5 12.25C10.5 12.7141 10.3156 13.1592 9.98744 13.4874C9.65925 13.8156 9.21413 14 8.75 14Z" fill="#E20074"/>
<path d="M19.25 11.375C19.7332 11.375 20.125 10.9832 20.125 10.5C20.125 10.0168 19.7332 9.625 19.25 9.625C18.7668 9.625 18.375 10.0168 18.375 10.5C18.375 10.9832 18.7668 11.375 19.25 11.375Z" fill="#E20074"/>
<path d="M19.25 14.875C19.7332 14.875 20.125 14.4832 20.125 14C20.125 13.5168 19.7332 13.125 19.25 13.125C18.7668 13.125 18.375 13.5168 18.375 14C18.375 14.4832 18.7668 14.875 19.25 14.875Z" fill="#E20074"/>
<path d="M17.5 13.125C17.9832 13.125 18.375 12.7332 18.375 12.25C18.375 11.7668 17.9832 11.375 17.5 11.375C17.0168 11.375 16.625 11.7668 16.625 12.25C16.625 12.7332 17.0168 13.125 17.5 13.125Z" fill="#E20074"/>
<path d="M21 13.125C21.4832 13.125 21.875 12.7332 21.875 12.25C21.875 11.7668 21.4832 11.375 21 11.375C20.5168 11.375 20.125 11.7668 20.125 12.25C20.125 12.7332 20.5168 13.125 21 13.125Z" fill="#E20074"/>
</svg>
