<svg width="22" height="22" viewBox="0 0 22 22" fill="none" xmlns="http://www.w3.org/2000/svg">
<path d="M19.9748 1.375H10.3096C9.19296 1.375 8.28441 2.28355 8.28441 3.40024V9.60033L6.48979 8.70789C6.4292 8.67767 6.3676 8.64914 6.3055 8.62212C6.83237 8.07208 7.15715 7.32684 7.15715 6.50691C7.15715 4.81921 5.78416 3.44606 4.09647 3.44606C2.4086 3.44606 1.03561 4.81921 1.03561 6.50691C1.03561 7.42403 1.44164 8.24782 2.08281 8.80927C0.902008 9.4736 0 10.7695 0 12.375V14.4461C0 15.3377 0.578903 16.0965 1.38071 16.3662V19.9691C1.38071 20.3249 1.66924 20.6136 2.02524 20.6136H6.16736C6.52336 20.6136 6.81189 20.3249 6.81189 19.9691V12.7273L8.8754 13.7589C9.66512 14.1537 10.7363 13.9184 11.2207 13.0195H13.5316L11.0846 19.7487C10.9629 20.0832 11.1356 20.4531 11.4701 20.5746C11.8525 20.7138 12.1926 20.4739 12.2961 20.1893L14.9033 13.0195H15.3551L17.989 20.1913C18.089 20.4634 18.4265 20.7171 18.8163 20.574C19.1503 20.4513 19.3218 20.081 19.199 19.7468L16.7283 13.0195H19.9748C21.0698 13.0195 22 12.1362 22 10.9943V3.40024C22 2.25821 21.0698 1.375 19.9748 1.375ZM2.32468 6.50691C2.32468 5.52988 3.11943 4.73512 4.0963 4.73512C5.07333 4.73512 5.86809 5.52988 5.86809 6.50691C5.86809 7.48378 5.07333 8.27853 4.0963 8.27853C3.11943 8.27853 2.32468 7.48378 2.32468 6.50691ZM10.1191 12.3304C10.1175 12.3351 10.1158 12.3399 10.1143 12.3448C10.0703 12.4675 9.97093 12.5709 9.84924 12.6209C9.7205 12.6733 9.57565 12.6677 9.45195 12.606C8.22633 11.9928 6.45538 11.1081 6.45538 11.1081C6.02771 10.8943 5.52283 11.2058 5.52283 11.6846V19.3245H2.66977V15.8268C2.66977 15.4709 2.38107 15.1822 2.02524 15.1822C1.61922 15.1822 1.28906 14.8521 1.28906 14.4461V12.375C1.28906 10.8001 2.57141 9.56776 4.0963 9.56776H4.6658C5.09784 9.56776 5.52937 9.66914 5.91492 9.86166C5.91492 9.86166 9.11189 11.4515 9.92612 11.857C10.1005 11.9436 10.1834 12.1471 10.1191 12.3304ZM20.7109 10.9943C20.7109 11.1912 20.6346 11.376 20.4956 11.515C20.3588 11.6519 20.169 11.7305 19.9748 11.7305H11.3609C11.3597 11.7269 11.3589 11.7234 11.3577 11.7201L12.9573 8.52107C13.1164 8.20267 12.9875 7.81561 12.6691 7.65633C12.3508 7.49721 11.9636 7.62611 11.8043 7.94452L10.4401 10.6729C10.1858 10.5461 9.8902 10.3989 9.57347 10.2415V3.40024C9.57347 2.99438 9.90363 2.66406 10.3096 2.66406H19.9748C20.169 2.66406 20.3588 2.74261 20.4958 2.87991C20.6346 3.01855 20.7109 3.20335 20.7109 3.40024V10.9943Z" fill="#E20074"/>
<path d="M18.5941 4.13647H11.6904C11.3344 4.13647 11.0459 4.425 11.0459 4.78101C11.0459 5.13701 11.3344 5.42554 11.6904 5.42554H18.5941C18.95 5.42554 19.2387 5.13701 19.2387 4.78101C19.2387 4.425 18.9501 4.13647 18.5941 4.13647Z" fill="#E20074"/>
<path d="M18.594 6.55273H15.1421C14.7863 6.55273 14.4976 6.84126 14.4976 7.19727C14.4976 7.55327 14.7863 7.8418 15.1421 7.8418H18.594C18.9499 7.8418 19.2386 7.55327 19.2386 7.19727C19.2386 6.84126 18.95 6.55273 18.594 6.55273Z" fill="#E20074"/>
<path d="M18.594 8.96899H15.1421C14.7863 8.96899 14.4976 9.25752 14.4976 9.61353C14.4976 9.96936 14.7863 10.2581 15.1421 10.2581H18.594C18.9499 10.2581 19.2386 9.96936 19.2386 9.61353C19.2386 9.25752 18.95 8.96899 18.594 8.96899Z" fill="#E20074"/>
</svg>
