<svg width="24" height="26" viewBox="0 0 24 26" fill="none" xmlns="http://www.w3.org/2000/svg">
<path d="M22.8935 8.52596C22.6976 8.20176 22.2979 8.11218 22.0006 8.32599C21.8255 8.45194 18.2656 11.0126 18.0905 11.1385C17.7933 11.3523 17.7113 11.7884 17.9072 12.1126C18.1032 12.4369 18.503 12.5263 18.8001 12.3126L19.8218 11.5777L17.9279 20.9131H12.5338C12.5377 20.9012 12.5418 20.8893 12.5455 20.8773L13.8345 16.6583C14.1092 15.7582 13.7959 14.7622 13.0726 14.2361L10.6224 12.4543L11.2452 11.0725L11.922 11.8108C12.2873 12.2093 12.7728 12.4288 13.2891 12.4288H15.8672C16.9334 12.4288 17.8007 11.4825 17.8007 10.3194C17.8007 9.15626 16.9333 8.21001 15.8672 8.21001H14.0898L12.7976 6.8003C14.1613 6.72891 15.2507 5.49635 15.2507 3.99124C15.2507 2.44343 14.1045 1.13184 12.6726 1.13184C11.2393 1.13184 10.0945 2.4447 10.0945 3.99124C10.0945 4.50337 10.2212 4.98347 10.4414 5.39748H6.872C6.57315 5.39748 6.27413 5.47445 6.00721 5.62005L3.42914 7.02629C2.47317 7.54775 2.0862 8.81322 2.56444 9.85682C3.04177 10.8973 4.20562 11.3204 5.15871 10.8L7.32815 9.61635H7.59391C6.00811 13.1052 6.58205 11.8863 5.50083 14.2645L2.32257 15.3964C1.30885 15.7653 0.761816 16.9589 1.10007 18.0649C1.44008 19.1776 2.53818 19.7654 3.54472 19.3991L7.48404 17.9923C7.97393 17.8137 8.37079 17.4381 8.60157 16.9346L8.90411 16.2745L9.6986 16.8524L8.87683 19.5424C8.73877 19.9938 8.7444 20.4718 8.88834 20.9131H4.26595C3.19981 20.9131 2.33241 21.8594 2.33241 23.0224C2.33241 24.1855 3.19981 25.1318 4.26595 25.1318H19.7344C20.8005 25.1318 21.6679 24.1855 21.6679 23.0224C21.6679 21.8594 20.8005 20.9131 19.7344 20.9131H19.2481L21.3676 10.4657L22.7101 9.49996C23.0074 9.28629 23.0894 8.85016 22.8935 8.52596ZM12.6726 2.53798C13.3714 2.53798 13.9616 3.20344 13.9616 3.9911C13.9616 4.76653 13.3834 5.39734 12.6726 5.39734C11.9618 5.39734 11.3836 4.76648 11.3836 3.9911C11.3836 3.20344 11.9739 2.53798 12.6726 2.53798ZM7.176 8.20987C7.07593 8.20987 6.97723 8.23528 6.88772 8.28413L4.58203 9.54219C4.26432 9.71559 3.87644 9.57435 3.71733 9.22756C3.55791 8.87969 3.68673 8.4579 4.0056 8.28398L6.58368 6.87774C6.67254 6.82927 6.77222 6.80363 6.872 6.80363H8.87232L8.23312 8.20987H7.176ZM7.44859 16.3058C7.37164 16.4736 7.23921 16.5989 7.07932 16.6572L3.14176 18.0635C3.14039 18.0639 3.13901 18.0644 3.13764 18.065C2.80051 18.1881 2.43574 17.9893 2.32287 17.6199C2.20801 17.2442 2.40051 16.8504 2.72664 16.7317L6.15812 15.5095C6.32264 15.4509 6.4586 15.3226 6.53551 15.1535L6.75899 14.6619C6.84948 14.7618 6.9499 14.8533 7.06054 14.9338L7.82319 15.4885L7.44859 16.3058ZM7.77571 13.7638C7.54854 13.5984 7.44645 13.2985 7.50652 13.0177C9.36848 8.92225 10.1343 7.19256 10.1343 7.19256C10.3293 6.76777 10.8519 6.6668 11.1668 7.00956L13.5559 9.61607H15.8673V9.61616C16.2227 9.61616 16.5118 9.93159 16.5118 10.3193C16.5118 10.707 16.2227 11.0225 15.8673 11.0225H13.2892C13.1196 11.0225 12.9536 10.9474 12.8336 10.8164L10.8832 8.68862L8.96698 12.9404L12.3577 15.4062C12.5988 15.5815 12.7032 15.9138 12.6117 16.2138L11.3226 20.4326C11.2083 20.807 10.839 20.9984 10.5073 20.8772C10.17 20.7544 9.98654 20.3572 10.0996 19.9874L11.2327 16.2781C11.0967 16.1792 7.91171 13.8627 7.77571 13.7638ZM19.7344 22.3194C20.0898 22.3194 20.3789 22.6348 20.3789 23.0225C20.3789 23.4102 20.0898 23.7256 19.7344 23.7256H4.26595C3.91056 23.7256 3.62142 23.4102 3.62142 23.0225C3.62142 22.6348 3.91056 22.3194 4.26595 22.3194C4.94434 22.3194 19.0894 22.3194 19.7344 22.3194Z" fill="#E20074" stroke="black" stroke-width="0.3"/>
</svg>
