<svg width="20" height="23" viewBox="0 0 20 23" fill="none" xmlns="http://www.w3.org/2000/svg">
<path fill-rule="evenodd" clip-rule="evenodd" d="M10.0002 1.04858L2.0835 3.01942V10.3528C2.0835 13.3319 3.12516 16.1278 4.87516 18.2361C6.9585 20.7569 9.3335 21.4903 10.0002 21.6736C11.4168 21.2153 13.5835 20.2986 15.4168 17.8236C17.0002 15.7611 17.9168 13.1028 17.9168 10.3069V2.97358L10.0002 1.04858ZM16.6668 10.3528C16.6668 14.8903 13.9168 18.9236 10.0002 20.2528C6.0835 18.9236 3.3335 14.8903 3.3335 10.3528V4.11942L10.0002 2.42358L16.6668 4.11942V10.3528ZM6.79187 10.0778C7.04187 9.80275 7.41687 9.80275 7.66687 10.0778L9.45854 11.9569L12.7502 8.33609C13.0002 8.06109 13.3752 8.06109 13.6252 8.33609C13.8752 8.61109 13.8752 9.02359 13.6252 9.29859L9.41687 13.9278L6.79187 11.0403C6.54187 10.7653 6.54187 10.3528 6.79187 10.0778Z" fill="#E20074"/>
<mask id="mask0" mask-type="alpha" maskUnits="userSpaceOnUse" x="2" y="1" width="16" height="21">
<path fill-rule="evenodd" clip-rule="evenodd" d="M10.0002 1.04858L2.0835 3.01942V10.3528C2.0835 13.3319 3.12516 16.1278 4.87516 18.2361C6.9585 20.7569 9.3335 21.4903 10.0002 21.6736C11.4168 21.2153 13.5835 20.2986 15.4168 17.8236C17.0002 15.7611 17.9168 13.1028 17.9168 10.3069V2.97358L10.0002 1.04858ZM16.6668 10.3528C16.6668 14.8903 13.9168 18.9236 10.0002 20.2528C6.0835 18.9236 3.3335 14.8903 3.3335 10.3528V4.11942L10.0002 2.42358L16.6668 4.11942V10.3528ZM6.79187 10.0778C7.04187 9.80275 7.41687 9.80275 7.66687 10.0778L9.45854 11.9569L12.7502 8.33609C13.0002 8.06109 13.3752 8.06109 13.6252 8.33609C13.8752 8.61109 13.8752 9.02359 13.6252 9.29859L9.41687 13.9278L6.79187 11.0403C6.54187 10.7653 6.54187 10.3528 6.79187 10.0778Z" fill="white"/>
</mask>
<g mask="url(#mask0)">
</g>
</svg>
