<svg width="24" height="24" viewBox="0 0 24 24" fill="none" xmlns="http://www.w3.org/2000/svg">
<path d="M15.3102 9.90003H13.6975V8.50003C13.6975 7.77762 13.7539 7.32262 14.7464 7.32262H15.3289C15.6994 7.32262 16 7.00902 16 6.62262V5.74483C16 5.37873 15.7309 5.06583 15.3806 5.04133C14.9753 5.01263 14.5693 4.99933 14.1626 5.00003C12.342 5.00003 11.0132 6.15992 11.0132 8.28932V9.90003H9.67108C9.30064 9.90003 9 10.2136 9 10.6V12C9 12.3864 9.30064 12.7 9.67108 12.7L11.0132 12.6993V18.3C11.0132 18.6864 11.3139 19 11.6843 19H13.0265C13.3969 19 13.6975 18.6864 13.6975 18.3V12.6979L15.1565 12.6972C15.4974 12.6972 15.7839 12.4305 15.8228 12.077L15.9765 10.6798C16.0228 10.2647 15.7114 9.90003 15.3102 9.90003Z" fill="white"/>
</svg>
