<svg width="24" height="24" viewBox="0 0 24 24" fill="none" xmlns="http://www.w3.org/2000/svg">
<path d="M9.33333 6C7.49267 6 6 7.49267 6 9.33333V14.6667C6 16.5073 7.49267 18 9.33333 18H14.6667C16.5073 18 18 16.5073 18 14.6667V9.33333C18 7.49267 16.5073 6 14.6667 6H9.33333ZM16 7.33333C16.368 7.33333 16.6667 7.632 16.6667 8C16.6667 8.368 16.368 8.66667 16 8.66667C15.632 8.66667 15.3333 8.368 15.3333 8C15.3333 7.632 15.632 7.33333 16 7.33333ZM12 8.66667C13.8407 8.66667 15.3333 10.1593 15.3333 12C15.3333 13.8407 13.8407 15.3333 12 15.3333C10.1593 15.3333 8.66667 13.8407 8.66667 12C8.66667 10.1593 10.1593 8.66667 12 8.66667ZM12 10C11.4696 10 10.9609 10.2107 10.5858 10.5858C10.2107 10.9609 10 11.4696 10 12C10 12.5304 10.2107 13.0391 10.5858 13.4142C10.9609 13.7893 11.4696 14 12 14C12.5304 14 13.0391 13.7893 13.4142 13.4142C13.7893 13.0391 14 12.5304 14 12C14 11.4696 13.7893 10.9609 13.4142 10.5858C13.0391 10.2107 12.5304 10 12 10Z" fill="white"/>
</svg>
