<svg width="24" height="24" viewBox="0 0 24 24" fill="none" xmlns="http://www.w3.org/2000/svg">
<path d="M20.9098 16.0311C20.8892 15.9854 20.8701 15.9474 20.8522 15.917C20.5573 15.3693 19.9936 14.6971 19.1617 13.9001L19.1441 13.8819L19.1353 13.8729L19.1264 13.8637H19.1174C18.7399 13.4926 18.5007 13.2431 18.4006 13.1153C18.2174 12.872 18.1763 12.6256 18.2765 12.376C18.3472 12.1874 18.613 11.7892 19.0731 11.1807C19.3151 10.8582 19.5068 10.5998 19.6483 10.4051C20.6693 9.00572 21.1119 8.11153 20.9761 7.72213L20.9234 7.63113C20.8879 7.57634 20.7965 7.52622 20.6491 7.48052C20.5014 7.43491 20.3127 7.42736 20.0825 7.45776L17.5334 7.47592C17.4921 7.46083 17.4331 7.46223 17.3563 7.48052C17.2796 7.4988 17.2412 7.50797 17.2412 7.50797L17.1969 7.53083L17.1616 7.55828C17.1321 7.57644 17.0997 7.60837 17.0642 7.65401C17.029 7.6995 16.9995 7.75287 16.9759 7.8137C16.6984 8.54984 16.3829 9.23426 16.0287 9.86693C15.8104 10.2442 15.6099 10.5711 15.4268 10.848C15.2439 11.1247 15.0904 11.3286 14.9666 11.4593C14.8426 11.5901 14.7307 11.6949 14.6302 11.7741C14.5298 11.8533 14.4532 11.8868 14.4002 11.8745C14.347 11.8623 14.297 11.8501 14.2496 11.838C14.167 11.7832 14.1006 11.7087 14.0505 11.6144C14.0002 11.5201 13.9664 11.4014 13.9487 11.2585C13.9311 11.1154 13.9206 10.9923 13.9177 10.8889C13.9149 10.7855 13.9162 10.6394 13.9222 10.4508C13.9283 10.2621 13.9311 10.1345 13.9311 10.0675C13.9311 9.83631 13.9354 9.58537 13.9442 9.31464C13.9531 9.04392 13.9604 8.82941 13.9664 8.67139C13.9724 8.51321 13.9752 8.34585 13.9752 8.16941C13.9752 7.99298 13.9648 7.85461 13.9442 7.75418C13.9239 7.65388 13.8927 7.55653 13.8515 7.46214C13.8101 7.36785 13.7496 7.29491 13.6701 7.24313C13.5904 7.19141 13.4914 7.15037 13.3736 7.11988C13.0608 7.04691 12.6625 7.00744 12.1785 7.0013C11.0811 6.98915 10.3759 7.06222 10.0631 7.2204C9.93922 7.28724 9.82709 7.37856 9.72683 7.49407C9.62058 7.62796 9.60578 7.70103 9.68246 7.71305C10.0366 7.76774 10.2872 7.89856 10.4348 8.10539L10.488 8.21499C10.5293 8.29407 10.5706 8.43407 10.6119 8.63479C10.6532 8.83552 10.6798 9.05757 10.6915 9.3008C10.721 9.74499 10.721 10.1252 10.6915 10.4415C10.662 10.758 10.6341 11.0043 10.6075 11.1807C10.5808 11.3572 10.541 11.5001 10.488 11.6096C10.4348 11.7191 10.3994 11.786 10.3817 11.8103C10.364 11.8346 10.3492 11.8499 10.3375 11.8559C10.2608 11.8862 10.181 11.9017 10.0985 11.9017C10.0158 11.9017 9.91554 11.859 9.79755 11.7738C9.67959 11.6886 9.55715 11.5716 9.43028 11.4225C9.30337 11.2734 9.16027 11.065 9.0009 10.7974C8.84163 10.5297 8.67641 10.2134 8.50526 9.84836L8.36369 9.58364C8.27517 9.41334 8.15429 9.16538 8.00084 8.83996C7.84733 8.51442 7.71164 8.19952 7.59368 7.89533C7.54651 7.76758 7.47569 7.67031 7.38129 7.60338L7.33698 7.57593C7.30754 7.55164 7.26024 7.52584 7.19539 7.49835C7.13044 7.4709 7.06267 7.45121 6.99181 7.43909L4.56658 7.45725C4.31876 7.45725 4.15061 7.51513 4.06207 7.63074L4.02663 7.68543C4.00893 7.71589 4 7.76454 4 7.8315C4 7.89843 4.0177 7.98058 4.05314 8.07784C4.40718 8.93572 4.79218 9.76308 5.20816 10.56C5.62414 11.357 5.98562 11.999 6.29238 12.4854C6.5992 12.9722 6.91195 13.4316 7.23061 13.8634C7.54928 14.2954 7.76021 14.5722 7.86343 14.6938C7.96675 14.8156 8.04791 14.9067 8.10689 14.9676L8.32823 15.1865C8.46984 15.3326 8.67781 15.5075 8.9522 15.7112C9.22663 15.9151 9.5305 16.1159 9.86388 16.3137C10.1973 16.5113 10.5853 16.6725 11.0279 16.7972C11.4704 16.922 11.9012 16.9721 12.3201 16.948H13.338C13.5445 16.9296 13.7009 16.8626 13.8072 16.7471L13.8424 16.7014C13.8661 16.6651 13.8883 16.6087 13.9087 16.5328C13.9294 16.4567 13.9397 16.3729 13.9397 16.2818C13.9337 16.0203 13.953 15.7845 13.9971 15.5747C14.0413 15.3649 14.0915 15.2067 14.1478 15.1001C14.204 14.9937 14.2674 14.9039 14.338 14.8311C14.4087 14.7581 14.4592 14.7139 14.4887 14.6987C14.5181 14.6834 14.5416 14.673 14.5593 14.6668C14.7009 14.6181 14.8676 14.6652 15.0595 14.8083C15.2513 14.9513 15.4312 15.1278 15.5995 15.3376C15.7677 15.5476 15.9698 15.7832 16.2057 16.0448C16.4419 16.3064 16.6484 16.5009 16.8253 16.6289L17.0023 16.7384C17.1204 16.8114 17.2739 16.8784 17.4627 16.9392C17.6512 17 17.8164 17.0152 17.9583 16.9848L20.2241 16.9484C20.4482 16.9484 20.6226 16.9101 20.7463 16.8342C20.8702 16.7582 20.9439 16.6744 20.9676 16.5833C20.9913 16.492 20.9926 16.3885 20.9721 16.2728C20.9511 16.1574 20.9304 16.0767 20.9098 16.0311Z" fill="white"/>
</svg>
