<svg width="24" height="24" viewBox="0 0 24 24" fill="none" xmlns="http://www.w3.org/2000/svg">
<path fill-rule="evenodd" clip-rule="evenodd" d="M17.4777 7.29737C18.0773 7.45755 18.5502 7.92644 18.7116 8.52128C19.0115 9.60779 18.9999 11.8726 18.9999 11.8726C18.9999 11.8726 18.9999 14.1258 18.7117 15.2124C18.5502 15.8071 18.0774 16.2761 17.4777 16.4362C16.3821 16.7222 12 16.7222 12 16.7222C12 16.7222 7.62926 16.7222 6.52227 16.4249C5.92253 16.2647 5.44978 15.7957 5.28828 15.2009C5 14.1258 5 11.8611 5 11.8611C5 11.8611 5 9.60779 5.28828 8.52128C5.44967 7.92654 5.93406 7.44611 6.52217 7.28604C7.61773 7 11.9999 7 11.9999 7C11.9999 7 16.3821 7 17.4777 7.29737ZM14.3331 11.8612L10.8331 14.0001V9.72231L14.3331 11.8612Z" fill="white"/>
</svg>
