<svg width="21" height="21" viewBox="0 0 21 21" fill="none" xmlns="http://www.w3.org/2000/svg">
<g clip-path="url(#clip0)">
<path d="M19.6875 17.5H1.3125C0.588875 17.5 0 16.9111 0 16.1875V4.8125C0 4.08887 0.588875 3.5 1.3125 3.5H3.0625C3.304 3.5 3.5 3.696 3.5 3.9375C3.5 4.179 3.304 4.375 3.0625 4.375H1.3125C1.07187 4.375 0.875 4.571 0.875 4.8125V16.1875C0.875 16.429 1.07187 16.625 1.3125 16.625H19.6875C19.9281 16.625 20.125 16.429 20.125 16.1875V4.8125C20.125 4.571 19.9281 4.375 19.6875 4.375H17.9375C17.696 4.375 17.5 4.179 17.5 3.9375C17.5 3.696 17.696 3.5 17.9375 3.5H19.6875C20.4111 3.5 21 4.08887 21 4.8125V16.1875C21 16.9111 20.4111 17.5 19.6875 17.5Z" fill="#E20074"/>
<path d="M14.4375 21H6.5625C6.321 21 6.125 20.804 6.125 20.5625C6.125 20.321 6.321 20.125 6.5625 20.125H14.4375C14.679 20.125 14.875 20.321 14.875 20.5625C14.875 20.804 14.679 21 14.4375 21Z" fill="#E20074"/>
<path d="M9.1875 21C8.946 21 8.75 20.804 8.75 20.5625V17.0625C8.75 16.821 8.946 16.625 9.1875 16.625C9.429 16.625 9.625 16.821 9.625 17.0625V20.5625C9.625 20.804 9.429 21 9.1875 21Z" fill="#E20074"/>
<path d="M11.8125 21C11.571 21 11.375 20.804 11.375 20.5625V17.0625C11.375 16.821 11.571 16.625 11.8125 16.625C12.054 16.625 12.25 16.821 12.25 17.0625V20.5625C12.25 20.804 12.054 21 11.8125 21Z" fill="#E20074"/>
<path d="M10.5 7.875C9.29337 7.875 8.3125 6.89325 8.3125 5.6875C8.3125 4.48175 9.29337 3.5 10.5 3.5C11.7066 3.5 12.6875 4.48175 12.6875 5.6875C12.6875 6.89325 11.7066 7.875 10.5 7.875ZM10.5 4.375C9.77637 4.375 9.1875 4.96388 9.1875 5.6875C9.1875 6.41113 9.77637 7 10.5 7C11.2236 7 11.8125 6.41113 11.8125 5.6875C11.8125 4.96388 11.2236 4.375 10.5 4.375Z" fill="#E20074"/>
<path d="M11.2001 11.375H9.80361C9.35211 11.375 8.97848 11.0364 8.93386 10.5866L8.82186 9.4745C8.55673 9.35637 8.30386 9.20937 8.06498 9.03438L7.04386 9.4955C6.62998 9.68188 6.15048 9.52612 5.92561 9.13587L5.22823 7.9275C5.00161 7.53725 5.10748 7.04375 5.47411 6.7795L6.37536 6.132C6.35873 5.99638 6.34561 5.845 6.34561 5.6875C6.34561 5.53 6.35873 5.37862 6.37536 5.24388L5.47411 4.59637C5.10748 4.33212 5.00161 3.83775 5.22823 3.4475L5.92561 2.24C6.15136 1.848 6.63348 1.69488 7.04298 1.8795L8.06498 2.3415C8.30386 2.1665 8.55673 2.0195 8.82186 1.90138L8.93386 0.7875C8.97848 0.338625 9.35298 0 9.80361 0H11.2001C11.6516 0 12.0252 0.338625 12.0699 0.788375L12.1819 1.9005C12.447 2.01863 12.7007 2.1665 12.9387 2.34063L13.9599 1.8795C14.3737 1.694 14.8532 1.84888 15.0781 2.23913L15.7755 3.4475C16.0021 3.83775 15.8962 4.33125 15.5296 4.5955L14.6284 5.243C14.645 5.37862 14.6581 5.53 14.6581 5.6875C14.6581 5.845 14.645 5.99638 14.6284 6.13112L15.5296 6.77863C15.8962 7.04288 16.0021 7.53725 15.7755 7.9275L15.0781 9.135C14.8515 9.52612 14.3694 9.67925 13.9607 9.4955L12.9387 9.0335C12.6999 9.2085 12.447 9.3555 12.1819 9.47363L12.0699 10.5875C12.0252 11.0364 11.6507 11.375 11.2001 11.375ZM8.12623 8.08937C8.22686 8.08937 8.32661 8.12438 8.40711 8.19175C8.70373 8.44025 9.03186 8.63013 9.38098 8.75787C9.53848 8.81563 9.64961 8.95825 9.66536 9.12537L9.80361 10.5H11.2001L11.3375 9.12537C11.3541 8.95825 11.4652 8.81563 11.6219 8.75787C11.971 8.63013 12.2991 8.43937 12.5957 8.19175C12.7235 8.08413 12.9029 8.05962 13.0569 8.12875L14.3195 8.69925L15.0177 7.49087L13.8995 6.68762C13.7639 6.58962 13.6956 6.42163 13.7245 6.25625C13.7577 6.06988 13.7831 5.88263 13.7831 5.6875C13.7831 5.49237 13.7577 5.30513 13.7254 5.1205C13.6965 4.95513 13.7647 4.788 13.9004 4.68913L15.0186 3.88587L14.3212 2.6775L13.0577 3.24712C12.9029 3.31625 12.7244 3.29087 12.5966 3.18412C12.3009 2.93562 11.9727 2.74575 11.6227 2.618C11.4652 2.56025 11.3541 2.41762 11.3384 2.2505L11.2001 0.875H9.80361L9.66623 2.24963C9.64961 2.41675 9.53848 2.55938 9.38186 2.61713C9.03186 2.74487 8.70373 2.93562 8.40711 3.18412C8.27936 3.29087 8.10086 3.31625 7.94598 3.24712L6.68336 2.67663L5.98511 3.885L7.10336 4.68825C7.23898 4.78625 7.30723 4.95425 7.27836 5.11963C7.24598 5.30512 7.22061 5.49237 7.22061 5.6875C7.22061 5.88263 7.24598 6.06987 7.27836 6.2545C7.30723 6.41987 7.23898 6.587 7.10336 6.68587L5.98511 7.49L6.68248 8.6975L7.94598 8.12787C8.00461 8.10162 8.06586 8.08937 8.12623 8.08937Z" fill="#E20074"/>
</g>
<defs>
<clipPath id="clip0">
<rect width="21" height="21" fill="white"/>
</clipPath>
</defs>
</svg>
