<svg width="53" height="45" viewBox="0 0 53 45" fill="none" xmlns="http://www.w3.org/2000/svg">
<path d="M51.9673 11.8178C52.5871 11.5975 53.0007 11.0106 53 10.3529C52.9992 9.69517 52.5841 9.10937 51.9639 8.89054L27.0166 0.0885059C26.6824 -0.0295019 26.3177 -0.0295019 25.9835 0.0885059L1.03619 8.89054C0.415927 9.10927 0.000829366 9.69517 1.24084e-06 10.3529C-0.000826884 11.0106 0.412925 11.5975 1.03267 11.8178L10.9152 15.3311V25.4598C10.9152 27.1314 12.6591 28.5452 16.0985 29.6615C19.0965 30.6345 22.7905 31.1704 26.5001 31.1704C30.2097 31.1704 33.9036 30.6345 36.9017 29.6615C40.3411 28.5452 42.085 27.1315 42.085 25.4598V15.3311L46.1653 13.8805V27.9156C44.3508 28.5572 43.0469 30.2889 43.0469 32.3204C43.0469 34.3518 44.3508 36.0836 46.1653 36.7252V42.6551C46.1653 43.5126 46.8605 44.2078 47.718 44.2078C48.5755 44.2078 49.2707 43.5126 49.2707 42.6551V36.7252C51.0853 36.0836 52.3892 34.3519 52.3892 32.3204C52.3892 30.289 51.0853 28.5572 49.2707 27.9156V12.7764L51.9673 11.8178ZM47.7179 33.8859C46.8546 33.8859 46.1522 33.1836 46.1522 32.3203C46.1522 31.4569 46.8546 30.7546 47.7179 30.7546C48.5812 30.7546 49.2836 31.4569 49.2836 32.3203C49.2836 33.1836 48.5812 33.8859 47.7179 33.8859ZM26.5 3.19925L46.7962 10.3604L26.5 17.5757L6.2038 10.3603L26.5 3.19925ZM38.9794 25.2257C38.6818 25.5257 37.6164 26.2442 35.2119 26.9302C32.6467 27.662 29.5527 28.0649 26.5 28.0649C23.4473 28.0649 20.3535 27.662 17.7881 26.9302C15.3836 26.2442 14.3182 25.5258 14.0206 25.2257V16.4351L25.9798 20.6867C26.148 20.7465 26.324 20.7764 26.4999 20.7764C26.6759 20.7764 26.8517 20.7465 27.02 20.6867L38.9792 16.4351V25.2257H38.9794Z" fill="#E20074"/>
</svg>
