<svg width="48" height="48" viewBox="0 0 48 48" fill="none" xmlns="http://www.w3.org/2000/svg">
<path d="M29.96 0C20.0126 0 11.9199 8.11481 11.9199 18.0892C11.9199 22.536 13.5284 26.6132 16.1925 29.7665L13.1672 32.7916L10.9777 30.5956L1.31737 40.2847C-0.439125 42.0463 -0.439125 44.9128 1.31737 46.6745C2.16956 47.5293 3.303 48 4.50881 48C5.71463 48 6.84797 47.5293 7.70025 46.6746L17.3547 36.9914L15.1531 34.7833L18.1681 31.7685C21.3325 34.515 25.4562 36.1786 29.96 36.1786C39.9072 36.1785 48 28.0637 48 18.0892C48 8.11481 39.9072 0 29.96 0V0ZM5.70844 44.6888C5.38781 45.0104 4.96172 45.1875 4.50881 45.1875C4.05591 45.1875 3.62991 45.0104 3.30919 44.6888C2.64441 44.022 2.64441 42.9372 3.30919 42.2705L10.9777 34.5791L13.383 36.9915L5.70844 44.6888ZM29.96 33.366C21.5635 33.366 14.7326 26.5129 14.7326 18.0892C14.7326 9.66562 21.5635 2.8125 29.96 2.8125C38.3563 2.8125 45.1873 9.66562 45.1873 18.0892C45.1873 26.5129 38.3563 33.366 29.96 33.366Z" fill="#E20074"/>
<path d="M34.1465 17.9927C35.3412 16.971 36.0895 15.5143 36.0895 13.9001C36.0895 10.8164 33.3583 8.30762 30.0012 8.30762C26.6441 8.30762 23.9129 10.8164 23.9129 13.9001C23.9129 15.5143 24.6612 16.9709 25.8559 17.9927C24.1705 19.1642 23.0781 21.0306 23.0781 23.129V27.6922H36.9243V23.129C36.9243 21.0306 35.8319 19.1642 34.1465 17.9927ZM30.0012 11.0881C31.7042 11.0881 33.0896 12.3496 33.0896 13.9001C33.0896 15.4507 31.7042 16.7122 30.0012 16.7122C28.2982 16.7122 26.9128 15.4507 26.9128 13.9001C26.9128 12.3496 28.2982 11.0881 30.0012 11.0881ZM33.9244 24.9119H26.0779V23.1291C26.0779 21.124 27.8379 19.4928 30.0012 19.4928C32.1644 19.4928 33.9244 21.124 33.9244 23.1291V24.9119Z" fill="#E20074"/>
</svg>
