<svg width="20" height="20" viewBox="0 0 20 20" fill="none" xmlns="http://www.w3.org/2000/svg">
<path d="M17.6562 4.6875V0H2.34375V2.34375H0V17.6562H2.34375V20H17.6562V17.6562H20V4.6875H17.6562ZM2.34375 16.4844H1.17188V5.85938H2.34375V16.4844ZM2.34375 4.6875H1.17188V3.51562H2.34375V4.6875ZM16.4844 18.8281H13.7974L16.4844 16.1411V18.8281ZM12.9688 17.9995V15.3125H15.6557L12.9688 17.9995ZM16.4844 14.1406H11.7969V18.8281H3.51562V1.17188H16.4844V14.1406ZM18.8281 16.4844H17.6562V5.85938H18.8281V16.4844Z" fill="#E20074"/>
<path d="M14.1406 7.07031H5.85938V8.24219H14.1406V7.07031Z" fill="#E20074"/>
<path d="M14.1406 9.41406H5.85938V10.5859H14.1406V9.41406Z" fill="#E20074"/>
<path d="M14.1406 4.72656H5.85938V5.89844H14.1406V4.72656Z" fill="#E20074"/>
</svg>
