<svg width="1440" height="124" viewBox="0 0 1440 124" fill="none" xmlns="http://www.w3.org/2000/svg">
<path d="M28.95 72.2L29.941 72.3335L30.0938 71.2H28.95V72.2ZM7.8 72.2V71.2H6.99404L6.82283 71.9876L7.8 72.2ZM7.8 35.6L6.82283 35.8124L6.99404 36.6H7.8V35.6ZM28.95 35.6V36.6H30.0938L29.941 35.4664L28.95 35.6ZM-52.6 53.9C-52.6 70.1683 -48.7425 83.5396 -41.3395 92.8655C-33.9122 102.222 -22.9984 107.4 -9.15 107.4V105.4C-22.4516 105.4 -32.7628 100.453 -39.773 91.622C-46.8075 82.7604 -50.6 69.8817 -50.6 53.9H-52.6ZM-9.15 107.4C11.3112 107.4 27.0256 93.9693 29.941 72.3335L27.959 72.0665C25.1744 92.7307 10.2888 105.4 -9.15 105.4V107.4ZM28.95 71.2H7.8V73.2H28.95V71.2ZM6.82283 71.9876C5.73788 76.9783 3.55403 80.4359 0.782158 82.6499C-1.99308 84.8666 -5.43698 85.9 -9.15 85.9V87.9C-5.06301 87.9 -1.15691 86.7584 2.03035 84.2126C5.22098 81.6641 7.61213 77.7717 8.77718 72.4124L6.82283 71.9876ZM-9.15 85.9C-15.7261 85.9 -20.7681 83.209 -24.2136 77.9518C-27.6992 72.6336 -29.6 64.6084 -29.6 53.9H-31.6C-31.6 64.7916 -29.6758 73.2664 -25.8864 79.0482C-22.0569 84.891 -16.3739 87.9 -9.15 87.9V85.9ZM-29.6 53.9C-29.6 43.1916 -27.6992 35.1664 -24.2136 29.8482C-20.7681 24.591 -15.7261 21.9 -9.15 21.9V19.9C-16.3739 19.9 -22.0569 22.909 -25.8864 28.7518C-29.6758 34.5336 -31.6 43.0084 -31.6 53.9H-29.6ZM-9.15 21.9C-5.43698 21.9 -1.99308 22.9334 0.782158 25.1501C3.55403 27.3641 5.73788 30.8217 6.82283 35.8124L8.77718 35.3876C7.61213 30.0283 5.22098 26.1359 2.03035 23.5874C-1.15691 21.0416 -5.06301 19.9 -9.15 19.9V21.9ZM7.8 36.6H28.95V34.6H7.8V36.6ZM29.941 35.4664C27.0256 13.8307 11.3112 0.399998 -9.15 0.399998V2.4C10.2888 2.4 25.1744 15.0693 27.959 35.7335L29.941 35.4664ZM-9.15 0.399998C-22.9984 0.399998 -33.9122 5.57803 -41.3395 14.9345C-48.7425 24.2604 -52.6 37.6317 -52.6 53.9H-50.6C-50.6 37.9183 -46.8075 25.0396 -39.773 16.178C-32.7628 7.34696 -22.4516 2.4 -9.15 2.4V0.399998ZM44.0801 22.55H43.0801V23.55H44.0801V22.55ZM69.7301 22.55H70.7301V21.55H69.7301V22.55ZM69.7301 104H68.7301V105H69.7301V104ZM89.9801 104V105H90.9801V104H89.9801ZM89.9801 22.55V21.55H88.9801V22.55H89.9801ZM115.63 22.55V23.55H116.63V22.55H115.63ZM115.63 3.79999H116.63V2.79999H115.63V3.79999ZM44.0801 3.79999V2.79999H43.0801V3.79999H44.0801ZM44.0801 23.55H69.7301V21.55H44.0801V23.55ZM68.7301 22.55V104H70.7301V22.55H68.7301ZM69.7301 105H89.9801V103H69.7301V105ZM90.9801 104V22.55H88.9801V104H90.9801ZM89.9801 23.55H115.63V21.55H89.9801V23.55ZM116.63 22.55V3.79999H114.63V22.55H116.63ZM115.63 2.79999H44.0801V4.79999H115.63V2.79999ZM43.0801 3.79999V22.55H45.0801V3.79999H43.0801ZM185.776 104L184.827 104.314L185.054 105H185.776V104ZM206.326 104V105H207.724L207.273 103.677L206.326 104ZM172.126 3.79999L173.073 3.47697L172.842 2.79999H172.126V3.79999ZM151.876 3.79999V2.79999H151.161L150.93 3.47697L151.876 3.79999ZM117.676 104L116.73 103.677L116.278 105H117.676V104ZM138.226 104V105H138.949L139.176 104.314L138.226 104ZM144.676 84.5V83.5H143.954L143.727 84.186L144.676 84.5ZM179.326 84.5L180.276 84.186L180.049 83.5H179.326V84.5ZM150.826 65.75L149.876 65.439L149.447 66.75H150.826V65.75ZM161.476 33.2V32.2H160.751L160.526 32.889L161.476 33.2ZM162.376 33.2L163.325 32.8851L163.098 32.2H162.376V33.2ZM173.176 65.75V66.75H174.562L174.125 65.4351L173.176 65.75ZM185.776 105H206.326V103H185.776V105ZM207.273 103.677L173.073 3.47697L171.18 4.12301L205.38 104.323L207.273 103.677ZM172.126 2.79999H151.876V4.79999H172.126V2.79999ZM150.93 3.47697L116.73 103.677L118.623 104.323L152.823 4.12301L150.93 3.47697ZM117.676 105H138.226V103H117.676V105ZM139.176 104.314L145.626 84.814L143.727 84.186L137.277 103.686L139.176 104.314ZM144.676 85.5H179.326V83.5H144.676V85.5ZM178.377 84.814L184.827 104.314L186.726 103.686L180.276 84.186L178.377 84.814ZM151.777 66.061L162.427 33.511L160.526 32.889L149.876 65.439L151.777 66.061ZM161.476 34.2H162.376V32.2H161.476V34.2ZM161.427 33.5149L172.227 66.0649L174.125 65.4351L163.325 32.8851L161.427 33.5149ZM173.176 64.75H150.826V66.75H173.176V64.75ZM282.921 3.79999V2.79999H281.921V3.79999H282.921ZM282.921 43.7V44.7H283.921V43.7H282.921ZM247.071 43.7H246.071V44.7H247.071V43.7ZM247.071 3.79999H248.071V2.79999H247.071V3.79999ZM226.821 3.79999V2.79999H225.821V3.79999H226.821ZM226.821 104H225.821V105H226.821V104ZM247.071 104V105H248.071V104H247.071ZM247.071 62.45V61.45H246.071V62.45H247.071ZM282.921 62.45H283.921V61.45H282.921V62.45ZM282.921 104H281.921V105H282.921V104ZM303.171 104V105H304.171V104H303.171ZM303.171 3.79999H304.171V2.79999H303.171V3.79999ZM281.921 3.79999V43.7H283.921V3.79999H281.921ZM282.921 42.7H247.071V44.7H282.921V42.7ZM248.071 43.7V3.79999H246.071V43.7H248.071ZM247.071 2.79999H226.821V4.79999H247.071V2.79999ZM225.821 3.79999V104H227.821V3.79999H225.821ZM226.821 105H247.071V103H226.821V105ZM248.071 104V62.45H246.071V104H248.071ZM247.071 63.45H282.921V61.45H247.071V63.45ZM281.921 62.45V104H283.921V62.45H281.921ZM282.921 105H303.171V103H282.921V105ZM304.171 104V3.79999H302.171V104H304.171ZM303.171 2.79999H282.921V4.79999H303.171V2.79999ZM353.086 37.55H352.086V38.55H353.086V37.55ZM353.086 3.79999H354.086V2.79999H353.086V3.79999ZM332.986 3.79999V2.79999H331.986V3.79999H332.986ZM332.986 104H331.986V105H332.986V104ZM353.086 85.25H352.086V86.25H353.086V85.25ZM353.086 56.3V55.3H352.086V56.3H353.086ZM370.186 36.55H353.086V38.55H370.186V36.55ZM354.086 37.55V3.79999H352.086V37.55H354.086ZM353.086 2.79999H332.986V4.79999H353.086V2.79999ZM331.986 3.79999V104H333.986V3.79999H331.986ZM332.986 105H370.186V103H332.986V105ZM370.186 105C380.14 105 388.696 101.934 394.769 96.056C400.847 90.1725 404.336 81.5701 404.336 70.7H402.336C402.336 81.1299 399 89.1775 393.378 94.619C387.751 100.066 379.732 103 370.186 103V105ZM404.336 70.7C404.336 59.8296 400.847 51.2632 394.767 45.4167C388.693 39.5763 380.137 36.55 370.186 36.55V38.55C379.735 38.55 387.754 41.4487 393.38 46.8583C399 52.2618 402.336 60.2704 402.336 70.7H404.336ZM368.836 84.25H353.086V86.25H368.836V84.25ZM354.086 85.25V56.3H352.086V85.25H354.086ZM353.086 57.3H368.836V55.3H353.086V57.3ZM368.836 57.3C372.436 57.3 375.542 58.4964 377.745 60.7169C379.946 62.9348 381.336 66.2646 381.336 70.7H383.336C383.336 65.8354 381.801 61.9652 379.165 59.3081C376.53 56.6535 372.885 55.3 368.836 55.3V57.3ZM381.336 70.7C381.336 75.2147 379.943 78.5821 377.742 80.8171C375.54 83.0538 372.436 84.25 368.836 84.25V86.25C372.886 86.25 376.532 84.8961 379.167 82.2204C381.804 79.5429 383.336 75.6353 383.336 70.7H381.336ZM408.492 22.55H407.492V23.55H408.492V22.55ZM434.142 22.55H435.142V21.55H434.142V22.55ZM434.142 104H433.142V105H434.142V104ZM454.392 104V105H455.392V104H454.392ZM454.392 22.55V21.55H453.392V22.55H454.392ZM480.042 22.55V23.55H481.042V22.55H480.042ZM480.042 3.79999H481.042V2.79999H480.042V3.79999ZM408.492 3.79999V2.79999H407.492V3.79999H408.492ZM408.492 23.55H434.142V21.55H408.492V23.55ZM433.142 22.55V104H435.142V22.55H433.142ZM434.142 105H454.392V103H434.142V105ZM455.392 104V22.55H453.392V104H455.392ZM454.392 23.55H480.042V21.55H454.392V23.55ZM481.042 22.55V3.79999H479.042V22.55H481.042ZM480.042 2.79999H408.492V4.79999H480.042V2.79999ZM407.492 3.79999V22.55H409.492V3.79999H407.492ZM561.168 22.55V23.55H562.168V22.55H561.168ZM561.168 3.79999H562.168V2.79999H561.168V3.79999ZM502.218 3.79999V2.79999H501.218V3.79999H502.218ZM502.218 104H501.218V105H502.218V104ZM561.168 104V105H562.168V104H561.168ZM561.168 85.25H562.168V84.25H561.168V85.25ZM522.468 85.25H521.468V86.25H522.468V85.25ZM522.468 62.45V61.45H521.468V62.45H522.468ZM559.668 62.45V63.45H560.668V62.45H559.668ZM559.668 43.7H560.668V42.7H559.668V43.7ZM522.468 43.7H521.468V44.7H522.468V43.7ZM522.468 22.55V21.55H521.468V22.55H522.468ZM562.168 22.55V3.79999H560.168V22.55H562.168ZM561.168 2.79999H502.218V4.79999H561.168V2.79999ZM501.218 3.79999V104H503.218V3.79999H501.218ZM502.218 105H561.168V103H502.218V105ZM562.168 104V85.25H560.168V104H562.168ZM561.168 84.25H522.468V86.25H561.168V84.25ZM523.468 85.25V62.45H521.468V85.25H523.468ZM522.468 63.45H559.668V61.45H522.468V63.45ZM560.668 62.45V43.7H558.668V62.45H560.668ZM559.668 42.7H522.468V44.7H559.668V42.7ZM523.468 43.7V22.55H521.468V43.7H523.468ZM522.468 23.55H561.168V21.55H522.468V23.55ZM664.596 107.4C678.589 107.4 689.506 102.263 696.899 92.9205C704.266 83.6109 708.046 70.238 708.046 53.9H706.046C706.046 69.962 702.326 82.8391 695.331 91.6795C688.361 100.487 678.053 105.4 664.596 105.4V107.4ZM708.046 53.9C708.046 37.562 704.266 24.1891 696.899 14.8795C689.506 5.53698 678.589 0.399998 664.596 0.399998V2.4C678.053 2.4 688.361 7.31302 695.331 16.1205C702.326 24.9609 706.046 37.838 706.046 53.9H708.046ZM664.596 0.399998C650.603 0.399998 639.686 5.53698 632.293 14.8795C624.926 24.1891 621.146 37.562 621.146 53.9H623.146C623.146 37.838 626.866 24.9609 633.862 16.1205C640.831 7.31302 651.139 2.4 664.596 2.4V0.399998ZM621.146 53.9C621.146 70.238 624.926 83.6109 632.293 92.9205C639.686 102.263 650.603 107.4 664.596 107.4V105.4C651.139 105.4 640.831 100.487 633.862 91.6795C626.866 82.8391 623.146 69.962 623.146 53.9H621.146ZM664.596 85.9C657.933 85.9 652.896 83.2743 649.476 78.0637C646.012 72.7865 644.146 64.7646 644.146 53.9H642.146C642.146 64.9354 644.031 73.4135 647.804 79.1613C651.621 84.9757 657.309 87.9 664.596 87.9V85.9ZM644.146 53.9C644.146 43.0354 646.012 35.0135 649.476 29.7363C652.896 24.5257 657.933 21.9 664.596 21.9V19.9C657.309 19.9 651.621 22.8243 647.804 28.6387C644.031 34.3865 642.146 42.8646 642.146 53.9H644.146ZM664.596 21.9C671.259 21.9 676.296 24.5257 679.716 29.7363C683.181 35.0135 685.046 43.0354 685.046 53.9H687.046C687.046 42.8646 685.162 34.3865 681.388 28.6387C677.571 22.8243 671.883 19.9 664.596 19.9V21.9ZM685.046 53.9C685.046 64.7646 683.181 72.7865 679.716 78.0637C676.296 83.2743 671.259 85.9 664.596 85.9V87.9C671.883 87.9 677.571 84.9757 681.388 79.1613C685.162 73.4135 687.046 64.9354 687.046 53.9H685.046ZM810.1 85.25H809.1V86.25H810.1V85.25ZM810.1 3.79999H811.1V2.79999H810.1V3.79999ZM740.5 3.79999V2.79999H739.542L739.501 3.75656L740.5 3.79999ZM737.95 62.45L736.951 62.4066V62.407L737.95 62.45ZM730.6 85.25V86.25H730.867L731.099 86.1162L730.6 85.25ZM722.8 85.25V84.25H721.8V85.25H722.8ZM722.8 122.45H721.8V123.45H722.8V122.45ZM742.45 122.45V123.45H743.45V122.45H742.45ZM742.45 104V103H741.45V104H742.45ZM800.5 104H801.5V103H800.5V104ZM800.5 122.45H799.5V123.45H800.5V122.45ZM820 122.45V123.45H821V122.45H820ZM820 85.25H821V84.25H820V85.25ZM752.05 85.25L751.21 84.7067L750.211 86.25H752.05V85.25ZM758.05 63.5L759.049 63.5468L759.049 63.5403L758.05 63.5ZM759.7 22.55V21.55H758.739L758.7 22.5097L759.7 22.55ZM790 22.55H791V21.55H790V22.55ZM790 85.25V86.25H791V85.25H790ZM811.1 85.25V3.79999H809.1V85.25H811.1ZM810.1 2.79999H740.5V4.79999H810.1V2.79999ZM739.501 3.75656L736.951 62.4066L738.949 62.4934L741.499 3.84343L739.501 3.75656ZM736.951 62.407C736.653 69.3328 735.798 74.3628 734.567 77.9097C733.336 81.46 731.764 83.4239 730.1 84.3838L731.099 86.1162C733.335 84.8261 735.139 82.365 736.457 78.5653C737.776 74.7621 738.647 69.5172 738.949 62.493L736.951 62.407ZM730.6 84.25H722.8V86.25H730.6V84.25ZM721.8 85.25V122.45H723.8V85.25H721.8ZM722.8 123.45H742.45V121.45H722.8V123.45ZM743.45 122.45V104H741.45V122.45H743.45ZM742.45 105H800.5V103H742.45V105ZM799.5 104V122.45H801.5V104H799.5ZM800.5 123.45H820V121.45H800.5V123.45ZM821 122.45V85.25H819V122.45H821ZM820 84.25H810.1V86.25H820V84.25ZM752.889 85.7933C756.308 80.5103 758.592 73.2774 759.049 63.5468L757.051 63.4532C756.607 72.9226 754.392 79.7897 751.21 84.7067L752.889 85.7933ZM759.049 63.5403L760.699 22.5903L758.7 22.5097L757.05 63.4597L759.049 63.5403ZM759.7 23.55H790V21.55H759.7V23.55ZM789 22.55V85.25H791V22.55H789ZM790 84.25H752.05V86.25H790V84.25ZM900.757 3.79999V2.79999H899.757V3.79999H900.757ZM900.757 43.7V44.7H901.757V43.7H900.757ZM864.907 43.7H863.907V44.7H864.907V43.7ZM864.907 3.79999H865.907V2.79999H864.907V3.79999ZM844.657 3.79999V2.79999H843.657V3.79999H844.657ZM844.657 104H843.657V105H844.657V104ZM864.907 104V105H865.907V104H864.907ZM864.907 62.45V61.45H863.907V62.45H864.907ZM900.757 62.45H901.757V61.45H900.757V62.45ZM900.757 104H899.757V105H900.757V104ZM921.007 104V105H922.007V104H921.007ZM921.007 3.79999H922.007V2.79999H921.007V3.79999ZM899.757 3.79999V43.7H901.757V3.79999H899.757ZM900.757 42.7H864.907V44.7H900.757V42.7ZM865.907 43.7V3.79999H863.907V43.7H865.907ZM864.907 2.79999H844.657V4.79999H864.907V2.79999ZM843.657 3.79999V104H845.657V3.79999H843.657ZM844.657 105H864.907V103H844.657V105ZM865.907 104V62.45H863.907V104H865.907ZM864.907 63.45H900.757V61.45H864.907V63.45ZM899.757 62.45V104H901.757V62.45H899.757ZM900.757 105H921.007V103H900.757V105ZM922.007 104V3.79999H920.007V104H922.007ZM921.007 2.79999H900.757V4.79999H921.007V2.79999ZM970.472 3.79999H971.472V2.79999H970.472V3.79999ZM950.372 3.79999V2.79999H949.372V3.79999H950.372ZM950.372 104H949.372V105H950.372V104ZM970.922 104V105H971.502L971.79 104.496L970.922 104ZM1006.77 41.3V40.3H1006.19L1005.9 40.8036L1006.77 41.3ZM1007.67 41.3H1008.67V40.3H1007.67V41.3ZM1007.67 104H1006.67V105H1007.67V104ZM1027.92 104V105H1028.92V104H1027.92ZM1027.92 3.79999H1028.92V2.79999H1027.92V3.79999ZM1007.37 3.79999V2.79999H1006.79L1006.5 3.30385L1007.37 3.79999ZM971.372 66.8V67.8H971.952L972.24 67.2961L971.372 66.8ZM970.472 66.8H969.472V67.8H970.472V66.8ZM970.472 2.79999H950.372V4.79999H970.472V2.79999ZM949.372 3.79999V104H951.372V3.79999H949.372ZM950.372 105H970.922V103H950.372V105ZM971.79 104.496L1007.64 41.7964L1005.9 40.8036L970.054 103.504L971.79 104.496ZM1006.77 42.3H1007.67V40.3H1006.77V42.3ZM1006.67 41.3V104H1008.67V41.3H1006.67ZM1007.67 105H1027.92V103H1007.67V105ZM1028.92 104V3.79999H1026.92V104H1028.92ZM1027.92 2.79999H1007.37V4.79999H1027.92V2.79999ZM1006.5 3.30385L970.504 66.3039L972.24 67.2961L1008.24 4.29613L1006.5 3.30385ZM971.372 65.8H970.472V67.8H971.372V65.8ZM971.472 66.8V3.79999H969.472V66.8H971.472ZM1136.31 3.79999V2.79999H1135.71L1135.43 3.32817L1136.31 3.79999ZM1106.61 59.3V60.3H1107.21L1107.49 59.7718L1106.61 59.3ZM1105.71 59.3L1104.83 59.7737L1105.11 60.3H1105.71V59.3ZM1075.86 3.79999L1076.74 3.32632L1076.46 2.79999H1075.86V3.79999ZM1057.26 3.79999V2.79999H1056.26V3.79999H1057.26ZM1057.26 104H1056.26V105H1057.26V104ZM1077.51 104V105H1078.51V104H1077.51ZM1077.51 47.45V46.45H1076.51V47.45H1077.51ZM1078.41 47.45L1079.28 46.9651L1079 46.45H1078.41V47.45ZM1102.86 91.55L1101.98 92.0349L1102.27 92.55H1102.86V91.55ZM1109.31 91.55V92.55H1109.9L1110.18 92.0372L1109.31 91.55ZM1133.91 47.45V46.45H1133.32L1133.04 46.9628L1133.91 47.45ZM1134.81 47.45H1135.81V46.45H1134.81V47.45ZM1134.81 104H1133.81V105H1134.81V104ZM1155.06 104V105H1156.06V104H1155.06ZM1155.06 3.79999H1156.06V2.79999H1155.06V3.79999ZM1135.43 3.32817L1105.73 58.8282L1107.49 59.7718L1137.19 4.27182L1135.43 3.32817ZM1106.61 58.3H1105.71V60.3H1106.61V58.3ZM1106.59 58.8263L1076.74 3.32632L1074.98 4.27367L1104.83 59.7737L1106.59 58.8263ZM1075.86 2.79999H1057.26V4.79999H1075.86V2.79999ZM1056.26 3.79999V104H1058.26V3.79999H1056.26ZM1057.26 105H1077.51V103H1057.26V105ZM1078.51 104V47.45H1076.51V104H1078.51ZM1077.51 48.45H1078.41V46.45H1077.51V48.45ZM1077.53 47.9349L1101.98 92.0349L1103.73 91.0651L1079.28 46.9651L1077.53 47.9349ZM1102.86 92.55H1109.31V90.55H1102.86V92.55ZM1110.18 92.0372L1134.78 47.9372L1133.04 46.9628L1108.44 91.0628L1110.18 92.0372ZM1133.91 48.45H1134.81V46.45H1133.91V48.45ZM1133.81 47.45V104H1135.81V47.45H1133.81ZM1134.81 105H1155.06V103H1134.81V105ZM1156.06 104V3.79999H1154.06V104H1156.06ZM1155.06 2.79999H1136.31V4.79999H1155.06V2.79999ZM1242.65 3.79999H1243.65V2.79999H1242.65V3.79999ZM1222.55 3.79999V2.79999H1221.55V3.79999H1222.55ZM1222.55 104H1221.55V105H1222.55V104ZM1243.1 104V105H1243.68L1243.96 104.496L1243.1 104ZM1278.95 41.3V40.3H1278.37L1278.08 40.8036L1278.95 41.3ZM1279.85 41.3H1280.85V40.3H1279.85V41.3ZM1279.85 104H1278.85V105H1279.85V104ZM1300.1 104V105H1301.1V104H1300.1ZM1300.1 3.79999H1301.1V2.79999H1300.1V3.79999ZM1279.55 3.79999V2.79999H1278.97L1278.68 3.30385L1279.55 3.79999ZM1243.55 66.8V67.8H1244.13L1244.41 67.2961L1243.55 66.8ZM1242.65 66.8H1241.65V67.8H1242.65V66.8ZM1242.65 2.79999H1222.55V4.79999H1242.65V2.79999ZM1221.55 3.79999V104H1223.55V3.79999H1221.55ZM1222.55 105H1243.1V103H1222.55V105ZM1243.96 104.496L1279.81 41.7964L1278.08 40.8036L1242.23 103.504L1243.96 104.496ZM1278.95 42.3H1279.85V40.3H1278.95V42.3ZM1278.85 41.3V104H1280.85V41.3H1278.85ZM1279.85 105H1300.1V103H1279.85V105ZM1301.1 104V3.79999H1299.1V104H1301.1ZM1300.1 2.79999H1279.55V4.79999H1300.1V2.79999ZM1278.68 3.30385L1242.68 66.3039L1244.41 67.2961L1280.41 4.29613L1278.68 3.30385ZM1243.55 65.8H1242.65V67.8H1243.55V65.8ZM1243.65 66.8V3.79999H1241.65V66.8H1243.65ZM1378.03 53.3H1377.03V54.0352L1377.73 54.2545L1378.03 53.3ZM1378.03 52.7L1377.72 51.7513L1377.03 51.9792V52.7H1378.03ZM1325.53 31.4L1324.54 31.3103L1324.44 32.4H1325.53V31.4ZM1345.78 31.4V32.4H1346.58L1346.76 31.6216L1345.78 31.4ZM1346.38 43.7V42.7H1345.38V43.7H1346.38ZM1346.38 62.45H1345.38V63.45H1346.38V62.45ZM1344.28 75.95L1345.26 75.7376L1345.09 74.95H1344.28V75.95ZM1324.18 75.95V74.95H1323.09L1323.19 76.0366L1324.18 75.95ZM1379.03 53.3V52.7H1377.03V53.3H1379.03ZM1378.35 53.6487C1387.78 50.5048 1394.63 40.8054 1394.63 30.2H1392.63C1392.63 39.9946 1386.28 48.8952 1377.72 51.7513L1378.35 53.6487ZM1394.63 30.2C1394.63 21.5095 1391.09 14.0286 1384.83 8.73607C1378.57 3.45397 1369.67 0.399998 1358.98 0.399998V2.4C1369.3 2.4 1377.72 5.34602 1383.54 10.2639C1389.35 15.1714 1392.63 22.0905 1392.63 30.2H1394.63ZM1358.98 0.399998C1347.75 0.399998 1339.49 3.80806 1333.84 9.44914C1328.22 15.0767 1325.3 22.8211 1324.54 31.3103L1326.53 31.4897C1327.26 23.3289 1330.05 16.0733 1335.26 10.8634C1340.45 5.66694 1348.17 2.4 1358.98 2.4V0.399998ZM1325.53 32.4H1345.78V30.4H1325.53V32.4ZM1346.76 31.6216C1347.47 28.4756 1348.85 25.9453 1350.85 24.2038C1352.83 22.4708 1355.52 21.45 1358.98 21.45V19.45C1355.1 19.45 1351.93 20.6042 1349.53 22.6962C1347.14 24.7797 1345.59 27.7244 1344.81 31.1784L1346.76 31.6216ZM1358.98 21.45C1362.71 21.45 1365.65 22.4534 1367.64 24.1379C1369.61 25.8074 1370.73 28.219 1370.73 31.25H1372.73C1372.73 27.681 1371.38 24.6926 1368.93 22.6121C1366.49 20.5466 1363.05 19.45 1358.98 19.45V21.45ZM1370.73 31.25C1370.73 35.1752 1369.31 37.9689 1366.79 39.8186C1364.22 41.7051 1360.37 42.7 1355.38 42.7V44.7C1360.59 44.7 1364.92 43.6699 1367.97 41.4314C1371.08 39.1561 1372.73 35.7248 1372.73 31.25H1370.73ZM1355.38 42.7H1346.38V44.7H1355.38V42.7ZM1345.38 43.7V62.45H1347.38V43.7H1345.38ZM1346.38 63.45H1355.38V61.45H1346.38V63.45ZM1355.38 63.45C1361.33 63.45 1365.57 64.7732 1368.31 66.9626C1371.02 69.1261 1372.38 72.2311 1372.38 76.1H1374.38C1374.38 71.7189 1372.82 67.9989 1369.56 65.3999C1366.34 62.8268 1361.59 61.45 1355.38 61.45V63.45ZM1372.38 76.1C1372.38 79.3786 1371 81.8959 1368.68 83.6229C1366.33 85.3726 1362.96 86.35 1358.98 86.35V88.35C1363.26 88.35 1367.09 87.3024 1369.87 85.2271C1372.69 83.1291 1374.38 80.0214 1374.38 76.1H1372.38ZM1358.98 86.35C1354.97 86.35 1351.9 85.277 1349.68 83.4625C1347.45 81.6461 1345.97 79.0142 1345.26 75.7376L1343.31 76.1624C1344.09 79.7858 1345.77 82.8539 1348.41 85.0125C1351.06 87.173 1354.6 88.35 1358.98 88.35V86.35ZM1344.28 74.95H1324.18V76.95H1344.28V74.95ZM1323.19 76.0366C1323.95 84.8245 1326.9 92.6902 1332.73 98.3604C1338.56 104.04 1347.16 107.4 1358.98 107.4V105.4C1347.55 105.4 1339.5 102.16 1334.12 96.9271C1328.74 91.6848 1325.91 84.3255 1325.18 75.8634L1323.19 76.0366ZM1358.98 107.4C1369.88 107.4 1379.12 104.389 1385.66 99.0958C1392.21 93.7899 1395.98 86.2309 1395.98 77.3H1393.98C1393.98 85.6191 1390.48 92.6101 1384.4 97.5417C1378.29 102.486 1369.53 105.4 1358.98 105.4V107.4ZM1395.98 77.3C1395.98 65.3221 1388.36 55.4788 1378.33 52.3455L1377.73 54.2545C1386.91 57.1212 1393.98 66.1779 1393.98 77.3H1395.98ZM1514.49 3.79999V2.79999H1513.49V3.79999H1514.49ZM1514.49 43.7V44.7H1515.49V43.7H1514.49ZM1478.64 43.7H1477.64V44.7H1478.64V43.7ZM1478.64 3.79999H1479.64V2.79999H1478.64V3.79999ZM1458.39 3.79999V2.79999H1457.39V3.79999H1458.39ZM1458.39 104H1457.39V105H1458.39V104ZM1478.64 104V105H1479.64V104H1478.64ZM1478.64 62.45V61.45H1477.64V62.45H1478.64ZM1514.49 62.45H1515.49V61.45H1514.49V62.45ZM1514.49 104H1513.49V105H1514.49V104ZM1534.74 104V105H1535.74V104H1534.74ZM1534.74 3.79999H1535.74V2.79999H1534.74V3.79999ZM1513.49 3.79999V43.7H1515.49V3.79999H1513.49ZM1514.49 42.7H1478.64V44.7H1514.49V42.7ZM1479.64 43.7V3.79999H1477.64V43.7H1479.64ZM1478.64 2.79999H1458.39V4.79999H1478.64V2.79999ZM1457.39 3.79999V104H1459.39V3.79999H1457.39ZM1458.39 105H1478.64V103H1458.39V105ZM1479.64 104V62.45H1477.64V104H1479.64ZM1478.64 63.45H1514.49V61.45H1478.64V63.45ZM1513.49 62.45V104H1515.49V62.45H1513.49ZM1514.49 105H1534.74V103H1514.49V105ZM1535.74 104V3.79999H1533.74V104H1535.74ZM1534.74 2.79999H1514.49V4.79999H1534.74V2.79999ZM1623.36 104L1622.41 104.314L1622.63 105H1623.36V104ZM1643.91 104V105H1645.3L1644.85 103.677L1643.91 104ZM1609.71 3.79999L1610.65 3.47697L1610.42 2.79999H1609.71V3.79999ZM1589.46 3.79999V2.79999H1588.74L1588.51 3.47697L1589.46 3.79999ZM1555.26 104L1554.31 103.677L1553.86 105H1555.26V104ZM1575.81 104V105H1576.53L1576.76 104.314L1575.81 104ZM1582.26 84.5V83.5H1581.53L1581.31 84.186L1582.26 84.5ZM1616.91 84.5L1617.86 84.186L1617.63 83.5H1616.91V84.5ZM1588.41 65.75L1587.46 65.439L1587.03 66.75H1588.41V65.75ZM1599.06 33.2V32.2H1598.33L1598.11 32.889L1599.06 33.2ZM1599.96 33.2L1600.91 32.8851L1600.68 32.2H1599.96V33.2ZM1610.76 65.75V66.75H1612.14L1611.71 65.4351L1610.76 65.75ZM1623.36 105H1643.91V103H1623.36V105ZM1644.85 103.677L1610.65 3.47697L1608.76 4.12301L1642.96 104.323L1644.85 103.677ZM1609.71 2.79999H1589.46V4.79999H1609.71V2.79999ZM1588.51 3.47697L1554.31 103.677L1556.2 104.323L1590.4 4.12301L1588.51 3.47697ZM1555.26 105H1575.81V103H1555.26V105ZM1576.76 104.314L1583.21 84.814L1581.31 84.186L1574.86 103.686L1576.76 104.314ZM1582.26 85.5H1616.91V83.5H1582.26V85.5ZM1615.96 84.814L1622.41 104.314L1624.31 103.686L1617.86 84.186L1615.96 84.814ZM1589.36 66.061L1600.01 33.511L1598.11 32.889L1587.46 65.439L1589.36 66.061ZM1599.06 34.2H1599.96V32.2H1599.06V34.2ZM1599.01 33.5149L1609.81 66.0649L1611.71 65.4351L1600.91 32.8851L1599.01 33.5149ZM1610.76 64.75H1588.41V66.75H1610.76V64.75ZM1738.26 72.2L1739.26 72.3335L1739.41 71.2H1738.26V72.2ZM1717.11 72.2V71.2H1716.31L1716.14 71.9876L1717.11 72.2ZM1717.11 35.6L1716.14 35.8124L1716.31 36.6H1717.11V35.6ZM1738.26 35.6V36.6H1739.41L1739.26 35.4664L1738.26 35.6ZM1656.71 53.9C1656.71 70.1683 1660.57 83.5396 1667.97 92.8655C1675.4 102.222 1686.32 107.4 1700.16 107.4V105.4C1686.86 105.4 1676.55 100.453 1669.54 91.622C1662.51 82.7604 1658.71 69.8817 1658.71 53.9H1656.71ZM1700.16 107.4C1720.63 107.4 1736.34 93.9693 1739.26 72.3335L1737.27 72.0665C1734.49 92.7307 1719.6 105.4 1700.16 105.4V107.4ZM1738.26 71.2H1717.11V73.2H1738.26V71.2ZM1716.14 71.9876C1715.05 76.9783 1712.87 80.4359 1710.1 82.6499C1707.32 84.8666 1703.88 85.9 1700.16 85.9V87.9C1704.25 87.9 1708.16 86.7584 1711.34 84.2126C1714.54 81.6641 1716.93 77.7717 1718.09 72.4124L1716.14 71.9876ZM1700.16 85.9C1693.59 85.9 1688.55 83.209 1685.1 77.9518C1681.62 72.6336 1679.71 64.6084 1679.71 53.9H1677.71C1677.71 64.7916 1679.64 73.2664 1683.43 79.0482C1687.26 84.891 1692.94 87.9 1700.16 87.9V85.9ZM1679.71 53.9C1679.71 43.1916 1681.62 35.1664 1685.1 29.8482C1688.55 24.591 1693.59 21.9 1700.16 21.9V19.9C1692.94 19.9 1687.26 22.909 1683.43 28.7518C1679.64 34.5336 1677.71 43.0084 1677.71 53.9H1679.71ZM1700.16 21.9C1703.88 21.9 1707.32 22.9334 1710.1 25.1501C1712.87 27.3641 1715.05 30.8217 1716.14 35.8124L1718.09 35.3876C1716.93 30.0283 1714.54 26.1359 1711.34 23.5874C1708.16 21.0416 1704.25 19.9 1700.16 19.9V21.9ZM1717.11 36.6H1738.26V34.6H1717.11V36.6ZM1739.26 35.4664C1736.34 13.8307 1720.63 0.399998 1700.16 0.399998V2.4C1719.6 2.4 1734.49 15.0693 1737.27 35.7335L1739.26 35.4664ZM1700.16 0.399998C1686.32 0.399998 1675.4 5.57803 1667.97 14.9345C1660.57 24.2604 1656.71 37.6317 1656.71 53.9H1658.71C1658.71 37.9183 1662.51 25.0396 1669.54 16.178C1676.55 7.34696 1686.86 2.4 1700.16 2.4V0.399998Z" fill="white"/>
</svg>
