<svg width="40" height="40" viewBox="0 0 40 40" fill="none" xmlns="http://www.w3.org/2000/svg">
<path fill-rule="evenodd" clip-rule="evenodd" d="M19.9991 0.916656C23.4991 0.916656 26.9157 2.24999 29.5824 4.91666C33.9157 9.24999 34.8324 16 31.7491 21.3333L22.4991 37.25C21.9991 38.1667 20.9991 38.6667 19.9991 38.6667C19.0824 38.6667 18.0824 38.25 17.4991 37.25L8.24908 21.3333C5.16575 16 6.08242 9.24999 10.4157 4.91666C13.0824 2.24999 16.4991 0.916656 19.9991 0.916656ZM19.9993 19.1667C22.7608 19.1667 24.9993 16.9281 24.9993 14.1667C24.9993 11.4052 22.7608 9.16666 19.9993 9.16666C17.2379 9.16666 14.9993 11.4052 14.9993 14.1667C14.9993 16.9281 17.2379 19.1667 19.9993 19.1667Z" fill="#E20074"/>
</svg>
