<svg width="33" height="33" viewBox="0 0 33 33" fill="none" xmlns="http://www.w3.org/2000/svg">
<path d="M27.1466 24.8119L21.879 23.4946L21.4307 21.7016C22.8401 20.306 23.8054 18.3892 24.0914 16.423C24.8723 16.203 25.4774 15.5333 25.5818 14.6932L25.9256 11.9432C25.9985 11.363 25.8197 10.7759 25.4347 10.3358C25.2092 10.0773 24.9245 9.88208 24.6097 9.76246L24.7362 7.17331L25.2505 6.65769C26.0246 5.83404 26.6667 4.42194 25.3247 2.37316C24.2935 0.798896 22.5418 0 20.1163 0C19.1593 0 16.9565 0 14.905 1.37775C9.04748 1.50015 8.25 4.22123 8.25 6.87502C8.25 7.49242 8.39985 8.88254 8.49885 9.72127C8.14546 9.83265 7.82513 10.0389 7.57485 10.3235C7.18298 10.7677 7.00148 11.3575 7.07438 11.9446L7.4181 14.6947C7.53083 15.5911 8.21146 16.2965 9.07223 16.4643C9.35685 18.3549 10.2726 20.2098 11.6009 21.5821L11.1224 23.4974L5.85473 24.8146C2.40623 25.674 0 28.7567 0 32.3125C0 32.692 0.308021 33 0.687521 33H32.3125C32.692 33 33.0001 32.6893 33.0001 32.3098C33 28.7567 30.5938 25.674 27.1466 24.8119Z" fill="#E20074"/>
</svg>
