<svg width="34" height="34" viewBox="0 0 34 34" fill="none" xmlns="http://www.w3.org/2000/svg">
<g clip-path="url(#clip0)">
<path d="M16.9999 8.50046C19.3471 8.50046 21.2499 6.5977 21.2499 4.25054C21.2499 1.90337 19.3471 0.000610352 16.9999 0.000610352C14.6528 0.000610352 12.75 1.90337 12.75 4.25054C12.75 6.5977 14.6528 8.50046 16.9999 8.50046Z" fill="#E20074"/>
<path d="M23.3667 20.0517L22.402 12.5378C22.2936 11.4477 21.3841 10.6254 20.2898 10.6254H19.1253C18.8427 10.6254 18.5728 10.738 18.3731 10.9356L17.0003 12.3083L15.6276 10.9356C15.4279 10.738 15.158 10.6254 14.8754 10.6254H13.713C12.6165 10.6254 11.7071 11.4477 11.6008 12.5102L10.634 20.0538C10.5957 20.3556 10.6892 20.6616 10.8911 20.8889C11.0929 21.1184 11.3819 21.2502 11.6879 21.2502H12.8354L13.7236 32.0875C13.8299 33.1755 14.7415 33.9999 15.838 33.9999H18.1648C19.2613 33.9999 20.1708 33.1755 20.2813 32.0684L21.1674 21.2502H22.3127C22.6187 21.2502 22.9077 21.1184 23.1096 20.8889C23.3136 20.6616 23.4071 20.3556 23.3667 20.0517Z" fill="#E20074"/>
<path d="M27.6246 8.50046C29.9717 8.50046 31.8745 6.5977 31.8745 4.25054C31.8745 1.90337 29.9717 0.000610352 27.6246 0.000610352C25.2774 0.000610352 23.3746 1.90337 23.3746 4.25054C23.3746 6.5977 25.2774 8.50046 27.6246 8.50046Z" fill="#E20074"/>
<path d="M6.37578 0.000610352C4.03195 0.000610352 2.12585 1.9067 2.12585 4.25054C2.12585 6.59437 4.03195 8.50046 6.37578 8.50046C8.71749 8.50046 10.6257 6.59437 10.6257 4.25054C10.6257 1.9067 8.71749 0.000610352 6.37578 0.000610352Z" fill="#E20074"/>
<path d="M33.9907 20.0517L33.0259 12.54C32.9176 11.4477 32.0102 10.6254 30.9137 10.6254H29.7492C29.4666 10.6254 29.1968 10.738 28.997 10.9356L27.6243 12.3083L26.2516 10.9356C26.0518 10.738 25.7819 10.6254 25.5014 10.6254H24.337C24.2052 10.6254 24.0862 10.6721 23.9608 10.6955C24.235 11.18 24.4496 11.7048 24.5133 12.2935L25.4759 19.7818C25.5949 20.6934 25.3102 21.6114 24.6982 22.302C24.4092 22.6335 24.0395 22.8673 23.6442 23.05L24.3497 29.9625C24.4581 31.0526 25.3676 31.875 26.4641 31.875H28.7909C29.8874 31.875 30.7968 31.0505 30.9073 29.9434L31.7913 21.2502H32.9367C33.2427 21.2502 33.5317 21.1184 33.7335 20.8889C33.9375 20.6616 34.031 20.3556 33.9907 20.0517Z" fill="#E20074"/>
<path d="M9.29407 22.2914C8.69058 21.6093 8.41008 20.6934 8.52483 19.7861L9.49169 12.2403C9.54694 11.6751 9.75518 11.1651 10.0208 10.6934C9.90181 10.6721 9.78918 10.6254 9.66381 10.6254H8.49933C8.21671 10.6254 7.94684 10.738 7.74709 10.9356L6.37437 12.3083L5.00164 10.9356C4.8019 10.738 4.53203 10.6254 4.25153 10.6254H3.08698C1.9905 10.6254 1.08102 11.4477 0.974771 12.5102L0.00791312 20.0538C-0.0303362 20.3556 0.0631621 20.6616 0.265034 20.8889C0.466905 21.1184 0.758025 21.2502 1.06189 21.2502H2.20937L3.09761 29.9625C3.20386 31.0505 4.11547 31.875 5.21195 31.875H7.53878C8.63526 31.875 9.54475 31.0505 9.65524 29.9434L10.3607 23.0479C9.96343 22.863 9.59156 22.6272 9.29407 22.2914Z" fill="#E20074"/>
</g>
<defs>
<clipPath id="clip0">
<rect width="34" height="34" fill="white"/>
</clipPath>
</defs>
</svg>
