<svg width="33" height="37" viewBox="0 0 33 37" fill="none" xmlns="http://www.w3.org/2000/svg">
<path d="M27.1466 27.286L21.879 25.8375L21.5751 24.4992C25.2092 23.8264 27.0792 22.6288 27.1617 22.5758C27.3569 22.4503 27.4779 22.222 27.4944 21.974C27.5096 21.726 27.4092 21.4826 27.2318 21.3268C27.2071 21.3057 24.75 19.0738 24.75 11.3408C24.75 4.81907 23.3626 1.51209 20.625 1.51209H20.2194C19.2321 0.462706 18.491 0 16.5 0C13.9164 0 8.24998 2.8564 8.24998 11.3408C8.24998 19.0738 5.79284 21.3057 5.77499 21.3208C5.59214 21.4719 5.48901 21.7124 5.49997 21.9634C5.51234 22.216 5.63609 22.4428 5.83274 22.5728C5.91524 22.6272 7.76736 23.8308 11.4235 24.5022L11.1196 25.8374L5.85201 27.286C2.40622 28.2341 0 31.6243 0 35.5346C0 35.9519 0.308021 36.2906 0.68752 36.2906H32.3125C32.692 36.2906 33 35.9489 33 35.5316C32.9999 31.6243 30.5937 28.2341 27.1466 27.286Z" fill="#E20074"/>
</svg>
